solid 
 facet normal -1.000000e+00  0.000000e+00  0.000000e+00
   outer loop
     vertex  1.150000e+01  1.025000e+02 -1.800000e+01
     vertex  1.150000e+01  1.200000e+02 -4.000000e+00
     vertex  1.150000e+01  1.200000e+02 -3.700000e+01
   endloop
 endfacet
 facet normal -1.000000e+00  0.000000e+00  0.000000e+00
   outer loop
     vertex  1.150000e+01  1.025000e+02 -4.000000e+00
     vertex  1.150000e+01  1.200000e+02 -4.000000e+00
     vertex  1.150000e+01  1.025000e+02 -1.800000e+01
   endloop
 endfacet
 facet normal -1.000000e+00  0.000000e+00 -0.000000e+00
   outer loop
     vertex  1.150000e+01  8.250000e+01 -1.800000e+01
     vertex  1.150000e+01  1.200000e+02 -3.700000e+01
     vertex  1.150000e+01  6.500000e+01 -3.700000e+01
   endloop
 endfacet
 facet normal -1.000000e+00  0.000000e+00  0.000000e+00
   outer loop
     vertex  1.150000e+01  8.250000e+01 -1.800000e+01
     vertex  1.150000e+01  1.025000e+02 -1.800000e+01
     vertex  1.150000e+01  1.200000e+02 -3.700000e+01
   endloop
 endfacet
 facet normal -1.000000e+00  0.000000e+00  0.000000e+00
   outer loop
     vertex  1.150000e+01  6.500000e+01 -4.000000e+00
     vertex  1.150000e+01  8.250000e+01 -4.000000e+00
     vertex  1.150000e+01  8.250000e+01 -1.800000e+01
   endloop
 endfacet
 facet normal -1.000000e+00  0.000000e+00  0.000000e+00
   outer loop
     vertex  1.150000e+01  6.500000e+01 -4.000000e+00
     vertex  1.150000e+01  8.250000e+01 -1.800000e+01
     vertex  1.150000e+01  6.500000e+01 -3.700000e+01
   endloop
 endfacet
 facet normal  0.000000e+00 -1.000000e+00 -0.000000e+00
   outer loop
     vertex  5.010000e+01  6.500000e+01 -3.400000e+01
     vertex  1.150000e+01  6.500000e+01 -3.700000e+01
     vertex  5.010000e+01  6.500000e+01 -3.700000e+01
   endloop
 endfacet
 facet normal -0.000000e+00 -1.000000e+00  0.000000e+00
   outer loop
     vertex  5.010000e+01  6.500000e+01 -3.400000e+01
     vertex  1.150000e+01  6.500000e+01 -4.000000e+00
     vertex  1.150000e+01  6.500000e+01 -3.700000e+01
   endloop
 endfacet
 facet normal  0.000000e+00 -1.000000e+00  0.000000e+00
   outer loop
     vertex  5.010000e+01  6.500000e+01 -3.400000e+01
     vertex  1.150000e+01  6.500000e+01  0.000000e+00
     vertex  1.150000e+01  6.500000e+01 -4.000000e+00
   endloop
 endfacet
 facet normal  0.000000e+00 -1.000000e+00  0.000000e+00
   outer loop
     vertex  7.010000e+01  6.500000e+01 -3.400000e+01
     vertex  1.150000e+01  6.500000e+01  0.000000e+00
     vertex  5.010000e+01  6.500000e+01 -3.400000e+01
   endloop
 endfacet
 facet normal  0.000000e+00 -1.000000e+00 -0.000000e+00
   outer loop
     vertex  1.149000e+02  6.500000e+01 -3.400000e+01
     vertex  7.010000e+01  6.500000e+01 -3.700000e+01
     vertex  1.149000e+02  6.500000e+01 -3.700000e+01
   endloop
 endfacet
 facet normal -0.000000e+00 -1.000000e+00  0.000000e+00
   outer loop
     vertex  1.149000e+02  6.500000e+01 -3.400000e+01
     vertex  7.010000e+01  6.500000e+01 -3.400000e+01
     vertex  7.010000e+01  6.500000e+01 -3.700000e+01
   endloop
 endfacet
 facet normal  0.000000e+00 -1.000000e+00  0.000000e+00
   outer loop
     vertex  1.149000e+02  6.500000e+01 -3.400000e+01
     vertex  1.150000e+01  6.500000e+01  0.000000e+00
     vertex  7.010000e+01  6.500000e+01 -3.400000e+01
   endloop
 endfacet
 facet normal  0.000000e+00 -1.000000e+00  0.000000e+00
   outer loop
     vertex  1.735000e+02  6.500000e+01 -3.700000e+01
     vertex  1.349000e+02  6.500000e+01 -3.400000e+01
     vertex  1.349000e+02  6.500000e+01 -3.700000e+01
   endloop
 endfacet
 facet normal  0.000000e+00 -1.000000e+00  0.000000e+00
   outer loop
     vertex  1.735000e+02  6.500000e+01  0.000000e+00
     vertex  1.149000e+02  6.500000e+01 -3.400000e+01
     vertex  1.349000e+02  6.500000e+01 -3.400000e+01
   endloop
 endfacet
 facet normal -0.000000e+00 -1.000000e+00  0.000000e+00
   outer loop
     vertex  1.735000e+02  6.500000e+01  0.000000e+00
     vertex  1.150000e+01  6.500000e+01  0.000000e+00
     vertex  1.149000e+02  6.500000e+01 -3.400000e+01
   endloop
 endfacet
 facet normal  0.000000e+00 -1.000000e+00 -0.000000e+00
   outer loop
     vertex  1.735000e+02  6.500000e+01  0.000000e+00
     vertex  1.349000e+02  6.500000e+01 -3.400000e+01
     vertex  1.735000e+02  6.500000e+01 -3.700000e+01
   endloop
 endfacet
 facet normal  0.000000e+00 -0.000000e+00 -1.000000e+00
   outer loop
     vertex  1.150000e+01  8.250000e+01 -4.000000e+00
     vertex  1.150000e+01  6.500000e+01 -4.000000e+00
     vertex  8.500000e+00  6.500000e+01 -4.000000e+00
   endloop
 endfacet
 facet normal -0.000000e+00 -0.000000e+00 -1.000000e+00
   outer loop
     vertex  1.150000e+01  1.200000e+02 -4.000000e+00
     vertex  1.150000e+01  1.025000e+02 -4.000000e+00
     vertex  8.500000e+00  1.200000e+02 -4.000000e+00
   endloop
 endfacet
 facet normal  0.000000e+00  0.000000e+00 -1.000000e+00
   outer loop
     vertex  8.500000e+00  1.200000e+02 -4.000000e+00
     vertex  1.150000e+01  8.250000e+01 -4.000000e+00
     vertex  8.500000e+00  6.500000e+01 -4.000000e+00
   endloop
 endfacet
 facet normal  0.000000e+00  0.000000e+00 -1.000000e+00
   outer loop
     vertex  8.500000e+00  1.200000e+02 -4.000000e+00
     vertex  1.150000e+01  1.025000e+02 -4.000000e+00
     vertex  1.150000e+01  8.250000e+01 -4.000000e+00
   endloop
 endfacet
 facet normal  0.000000e+00  1.000000e+00  0.000000e+00
   outer loop
     vertex  1.150000e+01  8.250000e+01 -4.000000e+00
     vertex  1.400000e+01  8.250000e+01 -1.800000e+01
     vertex  1.150000e+01  8.250000e+01 -1.800000e+01
   endloop
 endfacet
 facet normal  0.000000e+00  1.000000e+00  0.000000e+00
   outer loop
     vertex  1.400000e+01  8.250000e+01 -2.000000e+00
     vertex  1.150000e+01  8.250000e+01 -4.000000e+00
     vertex  1.150000e+01  8.250000e+01 -2.000000e+00
   endloop
 endfacet
 facet normal  0.000000e+00  1.000000e+00  0.000000e+00
   outer loop
     vertex  1.400000e+01  8.250000e+01 -2.000000e+00
     vertex  1.400000e+01  8.250000e+01 -1.800000e+01
     vertex  1.150000e+01  8.250000e+01 -4.000000e+00
   endloop
 endfacet
 facet normal  0.000000e+00  0.000000e+00  1.000000e+00
   outer loop
     vertex  1.150000e+01  1.025000e+02 -1.800000e+01
     vertex  1.150000e+01  8.250000e+01 -1.800000e+01
     vertex  1.400000e+01  8.250000e+01 -1.800000e+01
   endloop
 endfacet
 facet normal  0.000000e+00  0.000000e+00  1.000000e+00
   outer loop
     vertex  1.400000e+01  1.025000e+02 -1.800000e+01
     vertex  1.150000e+01  1.025000e+02 -1.800000e+01
     vertex  1.400000e+01  8.250000e+01 -1.800000e+01
   endloop
 endfacet
 facet normal  0.000000e+00 -1.000000e+00  0.000000e+00
   outer loop
     vertex  1.150000e+01  1.025000e+02 -4.000000e+00
     vertex  1.150000e+01  1.025000e+02 -1.800000e+01
     vertex  1.400000e+01  1.025000e+02 -1.800000e+01
   endloop
 endfacet
 facet normal -0.000000e+00 -1.000000e+00  0.000000e+00
   outer loop
     vertex  1.400000e+01  1.025000e+02 -2.000000e+00
     vertex  1.150000e+01  1.025000e+02 -2.000000e+00
     vertex  1.150000e+01  1.025000e+02 -4.000000e+00
   endloop
 endfacet
 facet normal  0.000000e+00 -1.000000e+00 -0.000000e+00
   outer loop
     vertex  1.400000e+01  1.025000e+02 -2.000000e+00
     vertex  1.150000e+01  1.025000e+02 -4.000000e+00
     vertex  1.400000e+01  1.025000e+02 -1.800000e+01
   endloop
 endfacet
 facet normal  0.000000e+00  1.000000e+00  0.000000e+00
   outer loop
     vertex  5.010000e+01  1.200000e+02 -3.400000e+01
     vertex  5.010000e+01  1.200000e+02 -3.700000e+01
     vertex  1.150000e+01  1.200000e+02 -3.700000e+01
   endloop
 endfacet
 facet normal  0.000000e+00  1.000000e+00  0.000000e+00
   outer loop
     vertex  5.010000e+01  1.200000e+02 -3.400000e+01
     vertex  1.150000e+01  1.200000e+02 -3.700000e+01
     vertex  1.150000e+01  1.200000e+02 -4.000000e+00
   endloop
 endfacet
 facet normal  0.000000e+00  1.000000e+00  0.000000e+00
   outer loop
     vertex  5.010000e+01  1.200000e+02 -3.400000e+01
     vertex  1.150000e+01  1.200000e+02 -4.000000e+00
     vertex  1.150000e+01  1.200000e+02  0.000000e+00
   endloop
 endfacet
 facet normal  0.000000e+00  1.000000e+00  0.000000e+00
   outer loop
     vertex  7.010000e+01  1.200000e+02 -3.400000e+01
     vertex  5.010000e+01  1.200000e+02 -3.400000e+01
     vertex  1.150000e+01  1.200000e+02  0.000000e+00
   endloop
 endfacet
 facet normal  0.000000e+00  1.000000e+00  0.000000e+00
   outer loop
     vertex  1.149000e+02  1.200000e+02 -3.400000e+01
     vertex  1.149000e+02  1.200000e+02 -3.700000e+01
     vertex  7.010000e+01  1.200000e+02 -3.700000e+01
   endloop
 endfacet
 facet normal  0.000000e+00  1.000000e+00  0.000000e+00
   outer loop
     vertex  1.149000e+02  1.200000e+02 -3.400000e+01
     vertex  7.010000e+01  1.200000e+02 -3.700000e+01
     vertex  7.010000e+01  1.200000e+02 -3.400000e+01
   endloop
 endfacet
 facet normal  0.000000e+00  1.000000e+00  0.000000e+00
   outer loop
     vertex  1.149000e+02  1.200000e+02 -3.400000e+01
     vertex  7.010000e+01  1.200000e+02 -3.400000e+01
     vertex  1.150000e+01  1.200000e+02  0.000000e+00
   endloop
 endfacet
 facet normal  0.000000e+00  1.000000e+00  0.000000e+00
   outer loop
     vertex  1.735000e+02  1.200000e+02 -3.700000e+01
     vertex  1.349000e+02  1.200000e+02 -3.700000e+01
     vertex  1.349000e+02  1.200000e+02 -3.400000e+01
   endloop
 endfacet
 facet normal  0.000000e+00  1.000000e+00  0.000000e+00
   outer loop
     vertex  1.735000e+02  1.200000e+02  0.000000e+00
     vertex  1.349000e+02  1.200000e+02 -3.400000e+01
     vertex  1.149000e+02  1.200000e+02 -3.400000e+01
   endloop
 endfacet
 facet normal  0.000000e+00  1.000000e+00  0.000000e+00
   outer loop
     vertex  1.735000e+02  1.200000e+02  0.000000e+00
     vertex  1.149000e+02  1.200000e+02 -3.400000e+01
     vertex  1.150000e+01  1.200000e+02  0.000000e+00
   endloop
 endfacet
 facet normal  0.000000e+00  1.000000e+00  0.000000e+00
   outer loop
     vertex  1.735000e+02  1.200000e+02  0.000000e+00
     vertex  1.735000e+02  1.200000e+02 -3.700000e+01
     vertex  1.349000e+02  1.200000e+02 -3.400000e+01
   endloop
 endfacet
 facet normal -0.000000e+00  0.000000e+00 -1.000000e+00
   outer loop
     vertex  5.010000e+01  1.200000e+02 -3.700000e+01
     vertex  1.150000e+01  6.500000e+01 -3.700000e+01
     vertex  1.150000e+01  1.200000e+02 -3.700000e+01
   endloop
 endfacet
 facet normal  0.000000e+00 -0.000000e+00 -1.000000e+00
   outer loop
     vertex  5.010000e+01  1.200000e+02 -3.700000e+01
     vertex  5.010000e+01  6.500000e+01 -3.700000e+01
     vertex  1.150000e+01  6.500000e+01 -3.700000e+01
   endloop
 endfacet
 facet normal  1.000000e+00 -0.000000e+00  0.000000e+00
   outer loop
     vertex  5.010000e+01  1.170000e+02 -3.400000e+01
     vertex  5.010000e+01  1.200000e+02 -3.700000e+01
     vertex  5.010000e+01  1.200000e+02 -3.400000e+01
   endloop
 endfacet
 facet normal  1.000000e+00  0.000000e+00  0.000000e+00
   outer loop
     vertex  5.010000e+01  6.500000e+01 -3.700000e+01
     vertex  5.010000e+01  1.170000e+02 -3.400000e+01
     vertex  5.010000e+01  6.800000e+01 -3.400000e+01
   endloop
 endfacet
 facet normal  1.000000e+00  0.000000e+00  0.000000e+00
   outer loop
     vertex  5.010000e+01  6.500000e+01 -3.700000e+01
     vertex  5.010000e+01  1.200000e+02 -3.700000e+01
     vertex  5.010000e+01  1.170000e+02 -3.400000e+01
   endloop
 endfacet
 facet normal  1.000000e+00 -0.000000e+00  0.000000e+00
   outer loop
     vertex  5.010000e+01  6.500000e+01 -3.400000e+01
     vertex  5.010000e+01  6.500000e+01 -3.700000e+01
     vertex  5.010000e+01  6.800000e+01 -3.400000e+01
   endloop
 endfacet
 facet normal -0.000000e+00  0.000000e+00 -1.000000e+00
   outer loop
     vertex  7.010000e+01  6.800000e+01 -3.400000e+01
     vertex  5.010000e+01  6.500000e+01 -3.400000e+01
     vertex  5.010000e+01  6.800000e+01 -3.400000e+01
   endloop
 endfacet
 facet normal  0.000000e+00 -0.000000e+00 -1.000000e+00
   outer loop
     vertex  7.010000e+01  6.800000e+01 -3.400000e+01
     vertex  7.010000e+01  6.500000e+01 -3.400000e+01
     vertex  5.010000e+01  6.500000e+01 -3.400000e+01
   endloop
 endfacet
 facet normal -1.000000e+00  0.000000e+00  0.000000e+00
   outer loop
     vertex  7.010000e+01  1.170000e+02 -3.400000e+01
     vertex  7.010000e+01  1.200000e+02 -3.400000e+01
     vertex  7.010000e+01  1.200000e+02 -3.700000e+01
   endloop
 endfacet
 facet normal -1.000000e+00  0.000000e+00  0.000000e+00
   outer loop
     vertex  7.010000e+01  6.500000e+01 -3.700000e+01
     vertex  7.010000e+01  6.800000e+01 -3.400000e+01
     vertex  7.010000e+01  1.170000e+02 -3.400000e+01
   endloop
 endfacet
 facet normal -1.000000e+00  0.000000e+00  0.000000e+00
   outer loop
     vertex  7.010000e+01  6.500000e+01 -3.700000e+01
     vertex  7.010000e+01  1.170000e+02 -3.400000e+01
     vertex  7.010000e+01  1.200000e+02 -3.700000e+01
   endloop
 endfacet
 facet normal -1.000000e+00  0.000000e+00  0.000000e+00
   outer loop
     vertex  7.010000e+01  6.500000e+01 -3.400000e+01
     vertex  7.010000e+01  6.800000e+01 -3.400000e+01
     vertex  7.010000e+01  6.500000e+01 -3.700000e+01
   endloop
 endfacet
 facet normal -0.000000e+00  0.000000e+00 -1.000000e+00
   outer loop
     vertex  1.149000e+02  1.200000e+02 -3.700000e+01
     vertex  7.010000e+01  6.500000e+01 -3.700000e+01
     vertex  7.010000e+01  1.200000e+02 -3.700000e+01
   endloop
 endfacet
 facet normal  0.000000e+00 -0.000000e+00 -1.000000e+00
   outer loop
     vertex  1.149000e+02  1.200000e+02 -3.700000e+01
     vertex  1.149000e+02  6.500000e+01 -3.700000e+01
     vertex  7.010000e+01  6.500000e+01 -3.700000e+01
   endloop
 endfacet
 facet normal  1.000000e+00 -0.000000e+00  0.000000e+00
   outer loop
     vertex  1.149000e+02  1.170000e+02 -3.400000e+01
     vertex  1.149000e+02  1.200000e+02 -3.700000e+01
     vertex  1.149000e+02  1.200000e+02 -3.400000e+01
   endloop
 endfacet
 facet normal  1.000000e+00  0.000000e+00  0.000000e+00
   outer loop
     vertex  1.149000e+02  6.500000e+01 -3.700000e+01
     vertex  1.149000e+02  1.170000e+02 -3.400000e+01
     vertex  1.149000e+02  6.800000e+01 -3.400000e+01
   endloop
 endfacet
 facet normal  1.000000e+00  0.000000e+00  0.000000e+00
   outer loop
     vertex  1.149000e+02  6.500000e+01 -3.700000e+01
     vertex  1.149000e+02  1.200000e+02 -3.700000e+01
     vertex  1.149000e+02  1.170000e+02 -3.400000e+01
   endloop
 endfacet
 facet normal  1.000000e+00 -0.000000e+00  0.000000e+00
   outer loop
     vertex  1.149000e+02  6.500000e+01 -3.400000e+01
     vertex  1.149000e+02  6.500000e+01 -3.700000e+01
     vertex  1.149000e+02  6.800000e+01 -3.400000e+01
   endloop
 endfacet
 facet normal -0.000000e+00  0.000000e+00 -1.000000e+00
   outer loop
     vertex  1.349000e+02  6.800000e+01 -3.400000e+01
     vertex  1.149000e+02  6.500000e+01 -3.400000e+01
     vertex  1.149000e+02  6.800000e+01 -3.400000e+01
   endloop
 endfacet
 facet normal  0.000000e+00 -0.000000e+00 -1.000000e+00
   outer loop
     vertex  1.349000e+02  6.800000e+01 -3.400000e+01
     vertex  1.349000e+02  6.500000e+01 -3.400000e+01
     vertex  1.149000e+02  6.500000e+01 -3.400000e+01
   endloop
 endfacet
 facet normal -1.000000e+00  0.000000e+00  0.000000e+00
   outer loop
     vertex  1.349000e+02  1.170000e+02 -3.400000e+01
     vertex  1.349000e+02  1.200000e+02 -3.400000e+01
     vertex  1.349000e+02  1.200000e+02 -3.700000e+01
   endloop
 endfacet
 facet normal -1.000000e+00  0.000000e+00  0.000000e+00
   outer loop
     vertex  1.349000e+02  6.500000e+01 -3.700000e+01
     vertex  1.349000e+02  6.800000e+01 -3.400000e+01
     vertex  1.349000e+02  1.170000e+02 -3.400000e+01
   endloop
 endfacet
 facet normal -1.000000e+00  0.000000e+00  0.000000e+00
   outer loop
     vertex  1.349000e+02  6.500000e+01 -3.700000e+01
     vertex  1.349000e+02  1.170000e+02 -3.400000e+01
     vertex  1.349000e+02  1.200000e+02 -3.700000e+01
   endloop
 endfacet
 facet normal -1.000000e+00  0.000000e+00  0.000000e+00
   outer loop
     vertex  1.349000e+02  6.500000e+01 -3.400000e+01
     vertex  1.349000e+02  6.800000e+01 -3.400000e+01
     vertex  1.349000e+02  6.500000e+01 -3.700000e+01
   endloop
 endfacet
 facet normal -0.000000e+00  0.000000e+00 -1.000000e+00
   outer loop
     vertex  1.735000e+02  1.200000e+02 -3.700000e+01
     vertex  1.349000e+02  6.500000e+01 -3.700000e+01
     vertex  1.349000e+02  1.200000e+02 -3.700000e+01
   endloop
 endfacet
 facet normal  0.000000e+00 -0.000000e+00 -1.000000e+00
   outer loop
     vertex  1.735000e+02  1.200000e+02 -3.700000e+01
     vertex  1.735000e+02  6.500000e+01 -3.700000e+01
     vertex  1.349000e+02  6.500000e+01 -3.700000e+01
   endloop
 endfacet
 facet normal  1.000000e+00 -0.000000e+00  0.000000e+00
   outer loop
     vertex  1.735000e+02  1.025000e+02 -1.800000e+01
     vertex  1.735000e+02  1.200000e+02 -3.700000e+01
     vertex  1.735000e+02  1.170000e+02 -6.000000e+00
   endloop
 endfacet
 facet normal  1.000000e+00  0.000000e+00  0.000000e+00
   outer loop
     vertex  1.735000e+02  1.200000e+02  0.000000e+00
     vertex  1.735000e+02  1.170000e+02 -6.000000e+00
     vertex  1.735000e+02  1.200000e+02 -3.700000e+01
   endloop
 endfacet
 facet normal  1.000000e+00 -0.000000e+00  0.000000e+00
   outer loop
     vertex  1.735000e+02  1.170000e+02 -2.000000e+00
     vertex  1.735000e+02  1.170000e+02 -6.000000e+00
     vertex  1.735000e+02  1.200000e+02  0.000000e+00
   endloop
 endfacet
 facet normal  1.000000e+00 -0.000000e+00  0.000000e+00
   outer loop
     vertex  1.735000e+02  1.170000e+02  0.000000e+00
     vertex  1.735000e+02  1.170000e+02 -2.000000e+00
     vertex  1.735000e+02  1.200000e+02  0.000000e+00
   endloop
 endfacet
 facet normal  1.000000e+00 -0.000000e+00  0.000000e+00
   outer loop
     vertex  1.735000e+02  1.025000e+02 -6.000000e+00
     vertex  1.735000e+02  1.025000e+02 -1.800000e+01
     vertex  1.735000e+02  1.170000e+02 -6.000000e+00
   endloop
 endfacet
 facet normal  1.000000e+00  0.000000e+00  0.000000e+00
   outer loop
     vertex  1.735000e+02  8.250000e+01 -1.800000e+01
     vertex  1.735000e+02  6.500000e+01 -3.700000e+01
     vertex  1.735000e+02  1.200000e+02 -3.700000e+01
   endloop
 endfacet
 facet normal  1.000000e+00 -0.000000e+00  0.000000e+00
   outer loop
     vertex  1.735000e+02  8.250000e+01 -1.800000e+01
     vertex  1.735000e+02  1.200000e+02 -3.700000e+01
     vertex  1.735000e+02  1.025000e+02 -1.800000e+01
   endloop
 endfacet
 facet normal  1.000000e+00 -0.000000e+00  0.000000e+00
   outer loop
     vertex  1.735000e+02  6.800000e+01 -6.000000e+00
     vertex  1.735000e+02  8.250000e+01 -1.800000e+01
     vertex  1.735000e+02  8.250000e+01 -6.000000e+00
   endloop
 endfacet
 facet normal  1.000000e+00  0.000000e+00  0.000000e+00
   outer loop
     vertex  1.735000e+02  6.800000e+01 -6.000000e+00
     vertex  1.735000e+02  6.500000e+01 -3.700000e+01
     vertex  1.735000e+02  8.250000e+01 -1.800000e+01
   endloop
 endfacet
 facet normal  1.000000e+00  0.000000e+00  0.000000e+00
   outer loop
     vertex  1.735000e+02  6.500000e+01  0.000000e+00
     vertex  1.735000e+02  6.800000e+01 -6.000000e+00
     vertex  1.735000e+02  6.800000e+01 -2.000000e+00
   endloop
 endfacet
 facet normal  1.000000e+00 -0.000000e+00  0.000000e+00
   outer loop
     vertex  1.735000e+02  6.500000e+01  0.000000e+00
     vertex  1.735000e+02  6.800000e+01 -2.000000e+00
     vertex  1.735000e+02  6.800000e+01  0.000000e+00
   endloop
 endfacet
 facet normal  1.000000e+00  0.000000e+00  0.000000e+00
   outer loop
     vertex  1.735000e+02  6.500000e+01  0.000000e+00
     vertex  1.735000e+02  6.500000e+01 -3.700000e+01
     vertex  1.735000e+02  6.800000e+01 -6.000000e+00
   endloop
 endfacet
 facet normal  0.000000e+00 -1.000000e+00  0.000000e+00
   outer loop
     vertex  1.735000e+02  6.500000e+01  0.000000e+00
     vertex  1.150000e+01  6.500000e+01  4.000000e+00
     vertex  1.150000e+01  6.500000e+01  0.000000e+00
   endloop
 endfacet
 facet normal -0.000000e+00 -1.000000e+00 -0.000000e+00
   outer loop
     vertex  1.735000e+02  6.500000e+01  4.000000e+00
     vertex  1.150000e+01  6.500000e+01  4.000000e+00
     vertex  1.735000e+02  6.500000e+01  0.000000e+00
   endloop
 endfacet
 facet normal  0.000000e+00 -1.000000e+00 -0.000000e+00
   outer loop
     vertex  1.150000e+01  6.500000e+01  0.000000e+00
     vertex  8.500000e+00  6.500000e+01 -4.000000e+00
     vertex  1.150000e+01  6.500000e+01 -4.000000e+00
   endloop
 endfacet
 facet normal -0.000000e+00 -1.000000e+00  0.000000e+00
   outer loop
     vertex  1.150000e+01  6.500000e+01  0.000000e+00
     vertex  8.500000e+00  6.500000e+01  0.000000e+00
     vertex  8.500000e+00  6.500000e+01 -4.000000e+00
   endloop
 endfacet
 facet normal -1.000000e+00  0.000000e+00  0.000000e+00
   outer loop
     vertex  8.500000e+00  6.500000e+01  0.000000e+00
     vertex  8.500000e+00  1.200000e+02 -4.000000e+00
     vertex  8.500000e+00  6.500000e+01 -4.000000e+00
   endloop
 endfacet
 facet normal -1.000000e+00  0.000000e+00  0.000000e+00
   outer loop
     vertex  8.500000e+00  6.500000e+01  0.000000e+00
     vertex  8.500000e+00  1.200000e+02  0.000000e+00
     vertex  8.500000e+00  1.200000e+02 -4.000000e+00
   endloop
 endfacet
 facet normal  0.000000e+00  1.000000e+00  0.000000e+00
   outer loop
     vertex  1.150000e+01  1.200000e+02  0.000000e+00
     vertex  1.150000e+01  1.200000e+02 -4.000000e+00
     vertex  8.500000e+00  1.200000e+02 -4.000000e+00
   endloop
 endfacet
 facet normal  0.000000e+00  1.000000e+00  0.000000e+00
   outer loop
     vertex  1.150000e+01  1.200000e+02  0.000000e+00
     vertex  8.500000e+00  1.200000e+02 -4.000000e+00
     vertex  8.500000e+00  1.200000e+02  0.000000e+00
   endloop
 endfacet
 facet normal  1.000000e+00  0.000000e+00  0.000000e+00
   outer loop
     vertex  1.150000e+01  8.250000e+01 -2.000000e+00
     vertex  1.150000e+01  8.250000e+01 -4.000000e+00
     vertex  1.150000e+01  1.025000e+02 -4.000000e+00
   endloop
 endfacet
 facet normal  1.000000e+00 -0.000000e+00  0.000000e+00
   outer loop
     vertex  1.150000e+01  8.250000e+01 -2.000000e+00
     vertex  1.150000e+01  1.025000e+02 -4.000000e+00
     vertex  1.150000e+01  1.025000e+02 -2.000000e+00
   endloop
 endfacet
 facet normal -1.000000e+00  0.000000e+00  0.000000e+00
   outer loop
     vertex  1.400000e+01  8.250000e+01 -2.000000e+00
     vertex  1.400000e+01  1.025000e+02 -1.800000e+01
     vertex  1.400000e+01  8.250000e+01 -1.800000e+01
   endloop
 endfacet
 facet normal -1.000000e+00  0.000000e+00  0.000000e+00
   outer loop
     vertex  1.400000e+01  8.250000e+01 -2.000000e+00
     vertex  1.400000e+01  1.025000e+02 -2.000000e+00
     vertex  1.400000e+01  1.025000e+02 -1.800000e+01
   endloop
 endfacet
 facet normal  0.000000e+00  0.000000e+00 -1.000000e+00
   outer loop
     vertex  1.150000e+01  1.025000e+02 -2.000000e+00
     vertex  1.400000e+01  8.250000e+01 -2.000000e+00
     vertex  1.150000e+01  8.250000e+01 -2.000000e+00
   endloop
 endfacet
 facet normal -0.000000e+00 -0.000000e+00 -1.000000e+00
   outer loop
     vertex  1.400000e+01  1.025000e+02 -2.000000e+00
     vertex  1.400000e+01  8.250000e+01 -2.000000e+00
     vertex  1.150000e+01  1.025000e+02 -2.000000e+00
   endloop
 endfacet
 facet normal -0.000000e+00  0.000000e+00 -1.000000e+00
   outer loop
     vertex  7.010000e+01  1.200000e+02 -3.400000e+01
     vertex  5.010000e+01  1.170000e+02 -3.400000e+01
     vertex  5.010000e+01  1.200000e+02 -3.400000e+01
   endloop
 endfacet
 facet normal  0.000000e+00 -0.000000e+00 -1.000000e+00
   outer loop
     vertex  7.010000e+01  1.200000e+02 -3.400000e+01
     vertex  7.010000e+01  1.170000e+02 -3.400000e+01
     vertex  5.010000e+01  1.170000e+02 -3.400000e+01
   endloop
 endfacet
 facet normal -0.000000e+00  0.000000e+00 -1.000000e+00
   outer loop
     vertex  1.349000e+02  1.200000e+02 -3.400000e+01
     vertex  1.149000e+02  1.170000e+02 -3.400000e+01
     vertex  1.149000e+02  1.200000e+02 -3.400000e+01
   endloop
 endfacet
 facet normal  0.000000e+00 -0.000000e+00 -1.000000e+00
   outer loop
     vertex  1.349000e+02  1.200000e+02 -3.400000e+01
     vertex  1.349000e+02  1.170000e+02 -3.400000e+01
     vertex  1.149000e+02  1.170000e+02 -3.400000e+01
   endloop
 endfacet
 facet normal  0.000000e+00  1.000000e+00  0.000000e+00
   outer loop
     vertex  1.735000e+02  1.200000e+02  0.000000e+00
     vertex  1.150000e+01  1.200000e+02  0.000000e+00
     vertex  1.150000e+01  1.200000e+02  4.000000e+00
   endloop
 endfacet
 facet normal  0.000000e+00  1.000000e+00  0.000000e+00
   outer loop
     vertex  1.735000e+02  1.200000e+02  4.000000e+00
     vertex  1.735000e+02  1.200000e+02  0.000000e+00
     vertex  1.150000e+01  1.200000e+02  4.000000e+00
   endloop
 endfacet
 facet normal  0.000000e+00  0.000000e+00  1.000000e+00
   outer loop
     vertex  5.010000e+01  1.170000e+02 -3.400000e+01
     vertex  1.450000e+01  1.170000e+02 -3.400000e+01
     vertex  1.450000e+01  6.800000e+01 -3.400000e+01
   endloop
 endfacet
 facet normal  0.000000e+00  0.000000e+00  1.000000e+00
   outer loop
     vertex  5.010000e+01  1.170000e+02 -3.400000e+01
     vertex  1.450000e+01  6.800000e+01 -3.400000e+01
     vertex  5.010000e+01  6.800000e+01 -3.400000e+01
   endloop
 endfacet
 facet normal  0.000000e+00  1.000000e+00  0.000000e+00
   outer loop
     vertex  5.010000e+01  6.800000e+01 -3.400000e+01
     vertex  1.450000e+01  6.800000e+01 -3.400000e+01
     vertex  1.450000e+01  6.800000e+01  0.000000e+00
   endloop
 endfacet
 facet normal  0.000000e+00  1.000000e+00  0.000000e+00
   outer loop
     vertex  7.010000e+01  6.800000e+01 -3.400000e+01
     vertex  5.010000e+01  6.800000e+01 -3.400000e+01
     vertex  1.450000e+01  6.800000e+01  0.000000e+00
   endloop
 endfacet
 facet normal  0.000000e+00  1.000000e+00  0.000000e+00
   outer loop
     vertex  1.705000e+02  6.800000e+01  0.000000e+00
     vertex  1.705000e+02  6.800000e+01 -3.400000e+01
     vertex  1.349000e+02  6.800000e+01 -3.400000e+01
   endloop
 endfacet
 facet normal  0.000000e+00  1.000000e+00  0.000000e+00
   outer loop
     vertex  1.705000e+02  6.800000e+01  0.000000e+00
     vertex  1.349000e+02  6.800000e+01 -3.400000e+01
     vertex  1.149000e+02  6.800000e+01 -3.400000e+01
   endloop
 endfacet
 facet normal  0.000000e+00  1.000000e+00  0.000000e+00
   outer loop
     vertex  1.705000e+02  6.800000e+01  0.000000e+00
     vertex  1.149000e+02  6.800000e+01 -3.400000e+01
     vertex  7.010000e+01  6.800000e+01 -3.400000e+01
   endloop
 endfacet
 facet normal  0.000000e+00  1.000000e+00  0.000000e+00
   outer loop
     vertex  1.705000e+02  6.800000e+01  0.000000e+00
     vertex  7.010000e+01  6.800000e+01 -3.400000e+01
     vertex  1.450000e+01  6.800000e+01  0.000000e+00
   endloop
 endfacet
 facet normal  0.000000e+00  0.000000e+00  1.000000e+00
   outer loop
     vertex  1.149000e+02  1.170000e+02 -3.400000e+01
     vertex  7.010000e+01  1.170000e+02 -3.400000e+01
     vertex  7.010000e+01  6.800000e+01 -3.400000e+01
   endloop
 endfacet
 facet normal  0.000000e+00  0.000000e+00  1.000000e+00
   outer loop
     vertex  1.149000e+02  1.170000e+02 -3.400000e+01
     vertex  7.010000e+01  6.800000e+01 -3.400000e+01
     vertex  1.149000e+02  6.800000e+01 -3.400000e+01
   endloop
 endfacet
 facet normal  0.000000e+00  0.000000e+00  1.000000e+00
   outer loop
     vertex  1.705000e+02  1.170000e+02 -3.400000e+01
     vertex  1.349000e+02  1.170000e+02 -3.400000e+01
     vertex  1.349000e+02  6.800000e+01 -3.400000e+01
   endloop
 endfacet
 facet normal  0.000000e+00  0.000000e+00  1.000000e+00
   outer loop
     vertex  1.705000e+02  1.170000e+02 -3.400000e+01
     vertex  1.349000e+02  6.800000e+01 -3.400000e+01
     vertex  1.705000e+02  6.800000e+01 -3.400000e+01
   endloop
 endfacet
 facet normal  1.000000e+00  0.000000e+00  0.000000e+00
   outer loop
     vertex  1.735000e+02  7.000000e+01  4.000000e+00
     vertex  1.735000e+02  6.800000e+01  0.000000e+00
     vertex  1.735000e+02  7.000000e+01  0.000000e+00
   endloop
 endfacet
 facet normal  1.000000e+00  0.000000e+00  0.000000e+00
   outer loop
     vertex  1.735000e+02  6.500000e+01  4.000000e+00
     vertex  1.735000e+02  6.500000e+01  0.000000e+00
     vertex  1.735000e+02  6.800000e+01  0.000000e+00
   endloop
 endfacet
 facet normal  1.000000e+00 -0.000000e+00  0.000000e+00
   outer loop
     vertex  1.735000e+02  6.500000e+01  4.000000e+00
     vertex  1.735000e+02  6.800000e+01  0.000000e+00
     vertex  1.735000e+02  7.000000e+01  4.000000e+00
   endloop
 endfacet
 facet normal  0.000000e+00 -1.000000e+00 -0.000000e+00
   outer loop
     vertex  1.765000e+02  6.800000e+01 -2.000000e+00
     vertex  1.735000e+02  6.800000e+01 -6.000000e+00
     vertex  1.765000e+02  6.800000e+01 -6.000000e+00
   endloop
 endfacet
 facet normal -0.000000e+00 -1.000000e+00  0.000000e+00
   outer loop
     vertex  1.765000e+02  6.800000e+01 -2.000000e+00
     vertex  1.735000e+02  6.800000e+01 -2.000000e+00
     vertex  1.735000e+02  6.800000e+01 -6.000000e+00
   endloop
 endfacet
 facet normal  0.000000e+00 -1.000000e+00 -0.000000e+00
   outer loop
     vertex  1.765000e+02  6.800000e+01  0.000000e+00
     vertex  1.735000e+02  6.800000e+01 -2.000000e+00
     vertex  1.765000e+02  6.800000e+01 -2.000000e+00
   endloop
 endfacet
 facet normal -0.000000e+00 -1.000000e+00  0.000000e+00
   outer loop
     vertex  1.765000e+02  6.800000e+01  0.000000e+00
     vertex  1.735000e+02  6.800000e+01  0.000000e+00
     vertex  1.735000e+02  6.800000e+01 -2.000000e+00
   endloop
 endfacet
 facet normal  0.000000e+00  0.000000e+00 -1.000000e+00
   outer loop
     vertex  1.735000e+02  8.250000e+01 -6.000000e+00
     vertex  1.765000e+02  6.800000e+01 -6.000000e+00
     vertex  1.735000e+02  6.800000e+01 -6.000000e+00
   endloop
 endfacet
 facet normal -0.000000e+00  0.000000e+00 -1.000000e+00
   outer loop
     vertex  1.765000e+02  1.170000e+02 -6.000000e+00
     vertex  1.735000e+02  1.025000e+02 -6.000000e+00
     vertex  1.735000e+02  1.170000e+02 -6.000000e+00
   endloop
 endfacet
 facet normal  0.000000e+00  0.000000e+00 -1.000000e+00
   outer loop
     vertex  1.765000e+02  6.800000e+01 -6.000000e+00
     vertex  1.735000e+02  1.025000e+02 -6.000000e+00
     vertex  1.765000e+02  1.170000e+02 -6.000000e+00
   endloop
 endfacet
 facet normal  0.000000e+00  0.000000e+00 -1.000000e+00
   outer loop
     vertex  1.765000e+02  6.800000e+01 -6.000000e+00
     vertex  1.735000e+02  8.250000e+01 -6.000000e+00
     vertex  1.735000e+02  1.025000e+02 -6.000000e+00
   endloop
 endfacet
 facet normal  0.000000e+00  1.000000e+00  0.000000e+00
   outer loop
     vertex  1.735000e+02  8.250000e+01 -6.000000e+00
     vertex  1.735000e+02  8.250000e+01 -1.800000e+01
     vertex  1.710000e+02  8.250000e+01 -1.800000e+01
   endloop
 endfacet
 facet normal  0.000000e+00  1.000000e+00  0.000000e+00
   outer loop
     vertex  1.710000e+02  8.250000e+01 -2.000000e+00
     vertex  1.735000e+02  8.250000e+01 -6.000000e+00
     vertex  1.710000e+02  8.250000e+01 -1.800000e+01
   endloop
 endfacet
 facet normal  0.000000e+00  1.000000e+00  0.000000e+00
   outer loop
     vertex  1.735000e+02  8.250000e+01 -2.000000e+00
     vertex  1.735000e+02  8.250000e+01 -6.000000e+00
     vertex  1.710000e+02  8.250000e+01 -2.000000e+00
   endloop
 endfacet
 facet normal  0.000000e+00  0.000000e+00  1.000000e+00
   outer loop
     vertex  1.710000e+02  1.025000e+02 -1.800000e+01
     vertex  1.710000e+02  8.250000e+01 -1.800000e+01
     vertex  1.735000e+02  8.250000e+01 -1.800000e+01
   endloop
 endfacet
 facet normal  0.000000e+00  0.000000e+00  1.000000e+00
   outer loop
     vertex  1.735000e+02  1.025000e+02 -1.800000e+01
     vertex  1.710000e+02  1.025000e+02 -1.800000e+01
     vertex  1.735000e+02  8.250000e+01 -1.800000e+01
   endloop
 endfacet
 facet normal  0.000000e+00 -1.000000e+00 -0.000000e+00
   outer loop
     vertex  1.735000e+02  1.025000e+02 -6.000000e+00
     vertex  1.710000e+02  1.025000e+02 -1.800000e+01
     vertex  1.735000e+02  1.025000e+02 -1.800000e+01
   endloop
 endfacet
 facet normal  0.000000e+00 -1.000000e+00  0.000000e+00
   outer loop
     vertex  1.710000e+02  1.025000e+02 -2.000000e+00
     vertex  1.710000e+02  1.025000e+02 -1.800000e+01
     vertex  1.735000e+02  1.025000e+02 -6.000000e+00
   endloop
 endfacet
 facet normal -0.000000e+00 -1.000000e+00 -0.000000e+00
   outer loop
     vertex  1.735000e+02  1.025000e+02 -2.000000e+00
     vertex  1.710000e+02  1.025000e+02 -2.000000e+00
     vertex  1.735000e+02  1.025000e+02 -6.000000e+00
   endloop
 endfacet
 facet normal  0.000000e+00  1.000000e+00  0.000000e+00
   outer loop
     vertex  1.765000e+02  1.170000e+02 -2.000000e+00
     vertex  1.765000e+02  1.170000e+02 -6.000000e+00
     vertex  1.735000e+02  1.170000e+02 -6.000000e+00
   endloop
 endfacet
 facet normal  0.000000e+00  1.000000e+00  0.000000e+00
   outer loop
     vertex  1.765000e+02  1.170000e+02 -2.000000e+00
     vertex  1.735000e+02  1.170000e+02 -6.000000e+00
     vertex  1.735000e+02  1.170000e+02 -2.000000e+00
   endloop
 endfacet
 facet normal  0.000000e+00  1.000000e+00  0.000000e+00
   outer loop
     vertex  1.765000e+02  1.170000e+02  0.000000e+00
     vertex  1.765000e+02  1.170000e+02 -2.000000e+00
     vertex  1.735000e+02  1.170000e+02 -2.000000e+00
   endloop
 endfacet
 facet normal  0.000000e+00  1.000000e+00  0.000000e+00
   outer loop
     vertex  1.765000e+02  1.170000e+02  0.000000e+00
     vertex  1.735000e+02  1.170000e+02 -2.000000e+00
     vertex  1.735000e+02  1.170000e+02  0.000000e+00
   endloop
 endfacet
 facet normal  1.000000e+00  0.000000e+00  0.000000e+00
   outer loop
     vertex  1.735000e+02  1.200000e+02  4.000000e+00
     vertex  1.735000e+02  1.170000e+02  0.000000e+00
     vertex  1.735000e+02  1.200000e+02  0.000000e+00
   endloop
 endfacet
 facet normal  1.000000e+00  0.000000e+00  0.000000e+00
   outer loop
     vertex  1.735000e+02  1.150000e+02  4.000000e+00
     vertex  1.735000e+02  1.150000e+02  0.000000e+00
     vertex  1.735000e+02  1.170000e+02  0.000000e+00
   endloop
 endfacet
 facet normal  1.000000e+00 -0.000000e+00  0.000000e+00
   outer loop
     vertex  1.735000e+02  1.150000e+02  4.000000e+00
     vertex  1.735000e+02  1.170000e+02  0.000000e+00
     vertex  1.735000e+02  1.200000e+02  4.000000e+00
   endloop
 endfacet
 facet normal  0.000000e+00  0.000000e+00  1.000000e+00
   outer loop
     vertex  1.735000e+02  7.000000e+01  4.000000e+00
     vertex  1.150000e+01  7.000000e+01  4.000000e+00
     vertex  1.150000e+01  6.500000e+01  4.000000e+00
   endloop
 endfacet
 facet normal  0.000000e+00  0.000000e+00  1.000000e+00
   outer loop
     vertex  1.735000e+02  7.000000e+01  4.000000e+00
     vertex  1.150000e+01  6.500000e+01  4.000000e+00
     vertex  1.735000e+02  6.500000e+01  4.000000e+00
   endloop
 endfacet
 facet normal -1.000000e+00  0.000000e+00  0.000000e+00
   outer loop
     vertex  1.150000e+01  6.500000e+01  4.000000e+00
     vertex  1.150000e+01  7.000000e+01  0.000000e+00
     vertex  1.150000e+01  6.500000e+01  0.000000e+00
   endloop
 endfacet
 facet normal -1.000000e+00  0.000000e+00  0.000000e+00
   outer loop
     vertex  1.150000e+01  6.500000e+01  4.000000e+00
     vertex  1.150000e+01  7.000000e+01  4.000000e+00
     vertex  1.150000e+01  7.000000e+01  0.000000e+00
   endloop
 endfacet
 facet normal  0.000000e+00  0.000000e+00  1.000000e+00
   outer loop
     vertex  1.150000e+01  7.000000e+01  0.000000e+00
     vertex  8.500000e+00  6.500000e+01  0.000000e+00
     vertex  1.150000e+01  6.500000e+01  0.000000e+00
   endloop
 endfacet
 facet normal  0.000000e+00  0.000000e+00  1.000000e+00
   outer loop
     vertex  1.150000e+01  1.200000e+02  0.000000e+00
     vertex  8.500000e+00  1.200000e+02  0.000000e+00
     vertex  1.150000e+01  1.150000e+02  0.000000e+00
   endloop
 endfacet
 facet normal  0.000000e+00  0.000000e+00  1.000000e+00
   outer loop
     vertex  8.500000e+00  1.200000e+02  0.000000e+00
     vertex  8.500000e+00  6.500000e+01  0.000000e+00
     vertex  1.150000e+01  7.000000e+01  0.000000e+00
   endloop
 endfacet
 facet normal  0.000000e+00  0.000000e+00  1.000000e+00
   outer loop
     vertex  8.500000e+00  1.200000e+02  0.000000e+00
     vertex  1.150000e+01  7.000000e+01  0.000000e+00
     vertex  1.150000e+01  1.150000e+02  0.000000e+00
   endloop
 endfacet
 facet normal  0.000000e+00 -1.000000e+00  0.000000e+00
   outer loop
     vertex  5.010000e+01  1.170000e+02 -3.400000e+01
     vertex  1.450000e+01  1.170000e+02  0.000000e+00
     vertex  1.450000e+01  1.170000e+02 -3.400000e+01
   endloop
 endfacet
 facet normal  0.000000e+00 -1.000000e+00  0.000000e+00
   outer loop
     vertex  7.010000e+01  1.170000e+02 -3.400000e+01
     vertex  1.450000e+01  1.170000e+02  0.000000e+00
     vertex  5.010000e+01  1.170000e+02 -3.400000e+01
   endloop
 endfacet
 facet normal  0.000000e+00 -1.000000e+00 -0.000000e+00
   outer loop
     vertex  1.705000e+02  1.170000e+02  0.000000e+00
     vertex  1.349000e+02  1.170000e+02 -3.400000e+01
     vertex  1.705000e+02  1.170000e+02 -3.400000e+01
   endloop
 endfacet
 facet normal  0.000000e+00 -1.000000e+00  0.000000e+00
   outer loop
     vertex  1.705000e+02  1.170000e+02  0.000000e+00
     vertex  1.149000e+02  1.170000e+02 -3.400000e+01
     vertex  1.349000e+02  1.170000e+02 -3.400000e+01
   endloop
 endfacet
 facet normal  0.000000e+00 -1.000000e+00  0.000000e+00
   outer loop
     vertex  1.705000e+02  1.170000e+02  0.000000e+00
     vertex  7.010000e+01  1.170000e+02 -3.400000e+01
     vertex  1.149000e+02  1.170000e+02 -3.400000e+01
   endloop
 endfacet
 facet normal -0.000000e+00 -1.000000e+00  0.000000e+00
   outer loop
     vertex  1.705000e+02  1.170000e+02  0.000000e+00
     vertex  1.450000e+01  1.170000e+02  0.000000e+00
     vertex  7.010000e+01  1.170000e+02 -3.400000e+01
   endloop
 endfacet
 facet normal  0.000000e+00  0.000000e+00  1.000000e+00
   outer loop
     vertex  1.735000e+02  1.200000e+02  4.000000e+00
     vertex  1.150000e+01  1.200000e+02  4.000000e+00
     vertex  1.150000e+01  1.150000e+02  4.000000e+00
   endloop
 endfacet
 facet normal  0.000000e+00  0.000000e+00  1.000000e+00
   outer loop
     vertex  1.735000e+02  1.200000e+02  4.000000e+00
     vertex  1.150000e+01  1.150000e+02  4.000000e+00
     vertex  1.735000e+02  1.150000e+02  4.000000e+00
   endloop
 endfacet
 facet normal -1.000000e+00  0.000000e+00  0.000000e+00
   outer loop
     vertex  1.150000e+01  1.150000e+02  4.000000e+00
     vertex  1.150000e+01  1.200000e+02  0.000000e+00
     vertex  1.150000e+01  1.150000e+02  0.000000e+00
   endloop
 endfacet
 facet normal -1.000000e+00  0.000000e+00  0.000000e+00
   outer loop
     vertex  1.150000e+01  1.150000e+02  4.000000e+00
     vertex  1.150000e+01  1.200000e+02  4.000000e+00
     vertex  1.150000e+01  1.200000e+02  0.000000e+00
   endloop
 endfacet
 facet normal  1.000000e+00  0.000000e+00  0.000000e+00
   outer loop
     vertex  1.450000e+01  1.122500e+02 -5.000000e+00
     vertex  1.450000e+01  1.082500e+02 -1.600000e+01
     vertex  1.450000e+01  1.082500e+02 -1.800000e+01
   endloop
 endfacet
 facet normal  1.000000e+00  0.000000e+00  0.000000e+00
   outer loop
     vertex  1.450000e+01  1.122500e+02 -5.000000e+00
     vertex  1.450000e+01  1.082500e+02 -1.800000e+01
     vertex  1.450000e+01  1.170000e+02 -3.400000e+01
   endloop
 endfacet
 facet normal  1.000000e+00  0.000000e+00  0.000000e+00
   outer loop
     vertex  1.450000e+01  1.170000e+02  0.000000e+00
     vertex  1.450000e+01  1.122500e+02 -5.000000e+00
     vertex  1.450000e+01  1.170000e+02 -3.400000e+01
   endloop
 endfacet
 facet normal  1.000000e+00 -0.000000e+00  0.000000e+00
   outer loop
     vertex  1.450000e+01  1.122500e+02 -3.000000e+00
     vertex  1.450000e+01  1.122500e+02 -5.000000e+00
     vertex  1.450000e+01  1.170000e+02  0.000000e+00
   endloop
 endfacet
 facet normal  1.000000e+00 -0.000000e+00  0.000000e+00
   outer loop
     vertex  1.450000e+01  1.150000e+02  0.000000e+00
     vertex  1.450000e+01  1.122500e+02 -3.000000e+00
     vertex  1.450000e+01  1.170000e+02  0.000000e+00
   endloop
 endfacet
 facet normal  1.000000e+00 -0.000000e+00  0.000000e+00
   outer loop
     vertex  1.450000e+01  9.325000e+01 -1.800000e+01
     vertex  1.450000e+01  1.170000e+02 -3.400000e+01
     vertex  1.450000e+01  1.082500e+02 -1.800000e+01
   endloop
 endfacet
 facet normal  1.000000e+00 -0.000000e+00  0.000000e+00
   outer loop
     vertex  1.450000e+01  9.175000e+01 -1.600000e+01
     vertex  1.450000e+01  9.325000e+01 -1.800000e+01
     vertex  1.450000e+01  9.325000e+01 -1.600000e+01
   endloop
 endfacet
 facet normal  1.000000e+00  0.000000e+00  0.000000e+00
   outer loop
     vertex  1.450000e+01  9.175000e+01 -1.600000e+01
     vertex  1.450000e+01  9.175000e+01 -1.800000e+01
     vertex  1.450000e+01  9.325000e+01 -1.800000e+01
   endloop
 endfacet
 facet normal  1.000000e+00  0.000000e+00  0.000000e+00
   outer loop
     vertex  1.450000e+01  1.002500e+02 -5.000000e+00
     vertex  1.450000e+01  9.325000e+01 -1.600000e+01
     vertex  1.450000e+01  1.082500e+02 -1.600000e+01
   endloop
 endfacet
 facet normal  1.000000e+00 -0.000000e+00  0.000000e+00
   outer loop
     vertex  1.450000e+01  1.002500e+02 -5.000000e+00
     vertex  1.450000e+01  1.082500e+02 -1.600000e+01
     vertex  1.450000e+01  1.122500e+02 -5.000000e+00
   endloop
 endfacet
 facet normal  1.000000e+00 -0.000000e+00  0.000000e+00
   outer loop
     vertex  1.450000e+01  9.850000e+01 -5.000000e+00
     vertex  1.450000e+01  9.325000e+01 -1.600000e+01
     vertex  1.450000e+01  1.002500e+02 -5.000000e+00
   endloop
 endfacet
 facet normal  1.000000e+00  0.000000e+00  0.000000e+00
   outer loop
     vertex  1.450000e+01  1.002500e+02 -3.000000e+00
     vertex  1.450000e+01  1.122500e+02 -3.000000e+00
     vertex  1.450000e+01  1.150000e+02  0.000000e+00
   endloop
 endfacet
 facet normal  1.000000e+00  0.000000e+00  0.000000e+00
   outer loop
     vertex  1.450000e+01  6.800000e+01 -3.400000e+01
     vertex  1.450000e+01  1.170000e+02 -3.400000e+01
     vertex  1.450000e+01  9.325000e+01 -1.800000e+01
   endloop
 endfacet
 facet normal  1.000000e+00  0.000000e+00  0.000000e+00
   outer loop
     vertex  1.450000e+01  6.800000e+01 -3.400000e+01
     vertex  1.450000e+01  9.325000e+01 -1.800000e+01
     vertex  1.450000e+01  9.175000e+01 -1.800000e+01
   endloop
 endfacet
 facet normal  1.000000e+00 -0.000000e+00  0.000000e+00
   outer loop
     vertex  1.450000e+01  9.850000e+01 -3.000000e+00
     vertex  1.450000e+01  1.002500e+02 -5.000000e+00
     vertex  1.450000e+01  1.002500e+02 -3.000000e+00
   endloop
 endfacet
 facet normal  1.000000e+00  0.000000e+00  0.000000e+00
   outer loop
     vertex  1.450000e+01  9.850000e+01 -3.000000e+00
     vertex  1.450000e+01  1.002500e+02 -3.000000e+00
     vertex  1.450000e+01  1.150000e+02  0.000000e+00
   endloop
 endfacet
 facet normal  1.000000e+00  0.000000e+00  0.000000e+00
   outer loop
     vertex  1.450000e+01  9.850000e+01 -3.000000e+00
     vertex  1.450000e+01  9.850000e+01 -5.000000e+00
     vertex  1.450000e+01  1.002500e+02 -5.000000e+00
   endloop
 endfacet
 facet normal  1.000000e+00 -0.000000e+00  0.000000e+00
   outer loop
     vertex  1.450000e+01  7.675000e+01 -1.800000e+01
     vertex  1.450000e+01  6.800000e+01 -3.400000e+01
     vertex  1.450000e+01  9.175000e+01 -1.800000e+01
   endloop
 endfacet
 facet normal  1.000000e+00  0.000000e+00  0.000000e+00
   outer loop
     vertex  1.450000e+01  8.650000e+01 -5.000000e+00
     vertex  1.450000e+01  9.175000e+01 -1.600000e+01
     vertex  1.450000e+01  9.325000e+01 -1.600000e+01
   endloop
 endfacet
 facet normal  1.000000e+00 -0.000000e+00  0.000000e+00
   outer loop
     vertex  1.450000e+01  8.650000e+01 -5.000000e+00
     vertex  1.450000e+01  9.325000e+01 -1.600000e+01
     vertex  1.450000e+01  9.850000e+01 -5.000000e+00
   endloop
 endfacet
 facet normal  1.000000e+00  0.000000e+00  0.000000e+00
   outer loop
     vertex  1.450000e+01  8.475000e+01 -5.000000e+00
     vertex  1.450000e+01  7.675000e+01 -1.600000e+01
     vertex  1.450000e+01  9.175000e+01 -1.600000e+01
   endloop
 endfacet
 facet normal  1.000000e+00 -0.000000e+00  0.000000e+00
   outer loop
     vertex  1.450000e+01  8.475000e+01 -5.000000e+00
     vertex  1.450000e+01  9.175000e+01 -1.600000e+01
     vertex  1.450000e+01  8.650000e+01 -5.000000e+00
   endloop
 endfacet
 facet normal  1.000000e+00  0.000000e+00  0.000000e+00
   outer loop
     vertex  1.450000e+01  8.650000e+01 -3.000000e+00
     vertex  1.450000e+01  8.475000e+01 -5.000000e+00
     vertex  1.450000e+01  8.650000e+01 -5.000000e+00
   endloop
 endfacet
 facet normal  1.000000e+00 -0.000000e+00  0.000000e+00
   outer loop
     vertex  1.450000e+01  8.475000e+01 -3.000000e+00
     vertex  1.450000e+01  8.475000e+01 -5.000000e+00
     vertex  1.450000e+01  8.650000e+01 -3.000000e+00
   endloop
 endfacet
 facet normal  1.000000e+00  0.000000e+00  0.000000e+00
   outer loop
     vertex  1.450000e+01  7.275000e+01 -5.000000e+00
     vertex  1.450000e+01  7.675000e+01 -1.800000e+01
     vertex  1.450000e+01  7.675000e+01 -1.600000e+01
   endloop
 endfacet
 facet normal  1.000000e+00  0.000000e+00  0.000000e+00
   outer loop
     vertex  1.450000e+01  7.275000e+01 -5.000000e+00
     vertex  1.450000e+01  6.800000e+01 -3.400000e+01
     vertex  1.450000e+01  7.675000e+01 -1.800000e+01
   endloop
 endfacet
 facet normal  1.000000e+00 -0.000000e+00  0.000000e+00
   outer loop
     vertex  1.450000e+01  7.275000e+01 -5.000000e+00
     vertex  1.450000e+01  7.675000e+01 -1.600000e+01
     vertex  1.450000e+01  8.475000e+01 -5.000000e+00
   endloop
 endfacet
 facet normal  1.000000e+00  0.000000e+00  0.000000e+00
   outer loop
     vertex  1.450000e+01  7.000000e+01  0.000000e+00
     vertex  1.450000e+01  7.275000e+01 -3.000000e+00
     vertex  1.450000e+01  8.475000e+01 -3.000000e+00
   endloop
 endfacet
 facet normal  1.000000e+00  0.000000e+00  0.000000e+00
   outer loop
     vertex  1.450000e+01  7.000000e+01  0.000000e+00
     vertex  1.450000e+01  8.475000e+01 -3.000000e+00
     vertex  1.450000e+01  8.650000e+01 -3.000000e+00
   endloop
 endfacet
 facet normal  1.000000e+00  0.000000e+00  0.000000e+00
   outer loop
     vertex  1.450000e+01  6.800000e+01  0.000000e+00
     vertex  1.450000e+01  7.275000e+01 -5.000000e+00
     vertex  1.450000e+01  7.275000e+01 -3.000000e+00
   endloop
 endfacet
 facet normal  1.000000e+00 -0.000000e+00  0.000000e+00
   outer loop
     vertex  1.450000e+01  6.800000e+01  0.000000e+00
     vertex  1.450000e+01  7.275000e+01 -3.000000e+00
     vertex  1.450000e+01  7.000000e+01  0.000000e+00
   endloop
 endfacet
 facet normal  1.000000e+00  0.000000e+00  0.000000e+00
   outer loop
     vertex  1.450000e+01  6.800000e+01  0.000000e+00
     vertex  1.450000e+01  6.800000e+01 -3.400000e+01
     vertex  1.450000e+01  7.275000e+01 -5.000000e+00
   endloop
 endfacet
 facet normal  1.000000e+00  0.000000e+00  0.000000e+00
   outer loop
     vertex  1.450000e+01  1.150000e+02  0.000000e+00
     vertex  1.450000e+01  7.000000e+01  0.000000e+00
     vertex  1.450000e+01  8.650000e+01 -3.000000e+00
   endloop
 endfacet
 facet normal  1.000000e+00  0.000000e+00  0.000000e+00
   outer loop
     vertex  1.450000e+01  1.150000e+02  0.000000e+00
     vertex  1.450000e+01  8.650000e+01 -3.000000e+00
     vertex  1.450000e+01  9.850000e+01 -3.000000e+00
   endloop
 endfacet
 facet normal -1.000000e+00  0.000000e+00  0.000000e+00
   outer loop
     vertex  1.705000e+02  1.122500e+02 -5.000000e+00
     vertex  1.705000e+02  1.082500e+02 -1.800000e+01
     vertex  1.705000e+02  1.082500e+02 -1.600000e+01
   endloop
 endfacet
 facet normal -1.000000e+00  0.000000e+00 -0.000000e+00
   outer loop
     vertex  1.705000e+02  1.122500e+02 -5.000000e+00
     vertex  1.705000e+02  1.170000e+02 -3.400000e+01
     vertex  1.705000e+02  1.082500e+02 -1.800000e+01
   endloop
 endfacet
 facet normal -1.000000e+00  0.000000e+00 -0.000000e+00
   outer loop
     vertex  1.705000e+02  1.170000e+02  0.000000e+00
     vertex  1.705000e+02  1.170000e+02 -3.400000e+01
     vertex  1.705000e+02  1.122500e+02 -5.000000e+00
   endloop
 endfacet
 facet normal -1.000000e+00  0.000000e+00  0.000000e+00
   outer loop
     vertex  1.705000e+02  1.122500e+02 -3.000000e+00
     vertex  1.705000e+02  1.170000e+02  0.000000e+00
     vertex  1.705000e+02  1.122500e+02 -5.000000e+00
   endloop
 endfacet
 facet normal -1.000000e+00  0.000000e+00 -0.000000e+00
   outer loop
     vertex  1.705000e+02  1.150000e+02  0.000000e+00
     vertex  1.705000e+02  1.170000e+02  0.000000e+00
     vertex  1.705000e+02  1.122500e+02 -3.000000e+00
   endloop
 endfacet
 facet normal -1.000000e+00  0.000000e+00  0.000000e+00
   outer loop
     vertex  1.705000e+02  9.325000e+01 -1.800000e+01
     vertex  1.705000e+02  1.082500e+02 -1.800000e+01
     vertex  1.705000e+02  1.170000e+02 -3.400000e+01
   endloop
 endfacet
 facet normal -1.000000e+00  0.000000e+00  0.000000e+00
   outer loop
     vertex  1.705000e+02  9.175000e+01 -1.600000e+01
     vertex  1.705000e+02  9.325000e+01 -1.600000e+01
     vertex  1.705000e+02  9.325000e+01 -1.800000e+01
   endloop
 endfacet
 facet normal -1.000000e+00  0.000000e+00  0.000000e+00
   outer loop
     vertex  1.705000e+02  9.175000e+01 -1.600000e+01
     vertex  1.705000e+02  9.325000e+01 -1.800000e+01
     vertex  1.705000e+02  9.175000e+01 -1.800000e+01
   endloop
 endfacet
 facet normal -1.000000e+00  0.000000e+00 -0.000000e+00
   outer loop
     vertex  1.705000e+02  1.002500e+02 -5.000000e+00
     vertex  1.705000e+02  1.082500e+02 -1.600000e+01
     vertex  1.705000e+02  9.325000e+01 -1.600000e+01
   endloop
 endfacet
 facet normal -1.000000e+00  0.000000e+00  0.000000e+00
   outer loop
     vertex  1.705000e+02  1.002500e+02 -5.000000e+00
     vertex  1.705000e+02  1.122500e+02 -5.000000e+00
     vertex  1.705000e+02  1.082500e+02 -1.600000e+01
   endloop
 endfacet
 facet normal -1.000000e+00  0.000000e+00 -0.000000e+00
   outer loop
     vertex  1.705000e+02  9.850000e+01 -5.000000e+00
     vertex  1.705000e+02  1.002500e+02 -5.000000e+00
     vertex  1.705000e+02  9.325000e+01 -1.600000e+01
   endloop
 endfacet
 facet normal -1.000000e+00  0.000000e+00  0.000000e+00
   outer loop
     vertex  1.705000e+02  1.002500e+02 -3.000000e+00
     vertex  1.705000e+02  1.150000e+02  0.000000e+00
     vertex  1.705000e+02  1.122500e+02 -3.000000e+00
   endloop
 endfacet
 facet normal -1.000000e+00  0.000000e+00  0.000000e+00
   outer loop
     vertex  1.705000e+02  6.800000e+01 -3.400000e+01
     vertex  1.705000e+02  9.325000e+01 -1.800000e+01
     vertex  1.705000e+02  1.170000e+02 -3.400000e+01
   endloop
 endfacet
 facet normal -1.000000e+00  0.000000e+00  0.000000e+00
   outer loop
     vertex  1.705000e+02  6.800000e+01 -3.400000e+01
     vertex  1.705000e+02  9.175000e+01 -1.800000e+01
     vertex  1.705000e+02  9.325000e+01 -1.800000e+01
   endloop
 endfacet
 facet normal -1.000000e+00  0.000000e+00  0.000000e+00
   outer loop
     vertex  1.705000e+02  9.850000e+01 -3.000000e+00
     vertex  1.705000e+02  1.002500e+02 -3.000000e+00
     vertex  1.705000e+02  1.002500e+02 -5.000000e+00
   endloop
 endfacet
 facet normal -1.000000e+00  0.000000e+00  0.000000e+00
   outer loop
     vertex  1.705000e+02  9.850000e+01 -3.000000e+00
     vertex  1.705000e+02  1.150000e+02  0.000000e+00
     vertex  1.705000e+02  1.002500e+02 -3.000000e+00
   endloop
 endfacet
 facet normal -1.000000e+00  0.000000e+00  0.000000e+00
   outer loop
     vertex  1.705000e+02  9.850000e+01 -3.000000e+00
     vertex  1.705000e+02  1.002500e+02 -5.000000e+00
     vertex  1.705000e+02  9.850000e+01 -5.000000e+00
   endloop
 endfacet
 facet normal -1.000000e+00  0.000000e+00 -0.000000e+00
   outer loop
     vertex  1.705000e+02  7.675000e+01 -1.800000e+01
     vertex  1.705000e+02  9.175000e+01 -1.800000e+01
     vertex  1.705000e+02  6.800000e+01 -3.400000e+01
   endloop
 endfacet
 facet normal -1.000000e+00  0.000000e+00  0.000000e+00
   outer loop
     vertex  1.705000e+02  8.650000e+01 -5.000000e+00
     vertex  1.705000e+02  9.325000e+01 -1.600000e+01
     vertex  1.705000e+02  9.175000e+01 -1.600000e+01
   endloop
 endfacet
 facet normal -1.000000e+00  0.000000e+00  0.000000e+00
   outer loop
     vertex  1.705000e+02  8.650000e+01 -5.000000e+00
     vertex  1.705000e+02  9.850000e+01 -5.000000e+00
     vertex  1.705000e+02  9.325000e+01 -1.600000e+01
   endloop
 endfacet
 facet normal -1.000000e+00  0.000000e+00 -0.000000e+00
   outer loop
     vertex  1.705000e+02  8.475000e+01 -5.000000e+00
     vertex  1.705000e+02  9.175000e+01 -1.600000e+01
     vertex  1.705000e+02  7.675000e+01 -1.600000e+01
   endloop
 endfacet
 facet normal -1.000000e+00  0.000000e+00  0.000000e+00
   outer loop
     vertex  1.705000e+02  8.475000e+01 -5.000000e+00
     vertex  1.705000e+02  8.650000e+01 -5.000000e+00
     vertex  1.705000e+02  9.175000e+01 -1.600000e+01
   endloop
 endfacet
 facet normal -1.000000e+00  0.000000e+00 -0.000000e+00
   outer loop
     vertex  1.705000e+02  8.650000e+01 -3.000000e+00
     vertex  1.705000e+02  8.650000e+01 -5.000000e+00
     vertex  1.705000e+02  8.475000e+01 -5.000000e+00
   endloop
 endfacet
 facet normal -1.000000e+00  0.000000e+00  0.000000e+00
   outer loop
     vertex  1.705000e+02  8.475000e+01 -3.000000e+00
     vertex  1.705000e+02  8.650000e+01 -3.000000e+00
     vertex  1.705000e+02  8.475000e+01 -5.000000e+00
   endloop
 endfacet
 facet normal -1.000000e+00  0.000000e+00  0.000000e+00
   outer loop
     vertex  1.705000e+02  7.275000e+01 -5.000000e+00
     vertex  1.705000e+02  7.675000e+01 -1.600000e+01
     vertex  1.705000e+02  7.675000e+01 -1.800000e+01
   endloop
 endfacet
 facet normal -1.000000e+00  0.000000e+00 -0.000000e+00
   outer loop
     vertex  1.705000e+02  7.275000e+01 -5.000000e+00
     vertex  1.705000e+02  7.675000e+01 -1.800000e+01
     vertex  1.705000e+02  6.800000e+01 -3.400000e+01
   endloop
 endfacet
 facet normal -1.000000e+00  0.000000e+00  0.000000e+00
   outer loop
     vertex  1.705000e+02  7.275000e+01 -5.000000e+00
     vertex  1.705000e+02  8.475000e+01 -5.000000e+00
     vertex  1.705000e+02  7.675000e+01 -1.600000e+01
   endloop
 endfacet
 facet normal -1.000000e+00  0.000000e+00  0.000000e+00
   outer loop
     vertex  1.705000e+02  7.000000e+01  0.000000e+00
     vertex  1.705000e+02  8.475000e+01 -3.000000e+00
     vertex  1.705000e+02  7.275000e+01 -3.000000e+00
   endloop
 endfacet
 facet normal -1.000000e+00  0.000000e+00  0.000000e+00
   outer loop
     vertex  1.705000e+02  7.000000e+01  0.000000e+00
     vertex  1.705000e+02  8.650000e+01 -3.000000e+00
     vertex  1.705000e+02  8.475000e+01 -3.000000e+00
   endloop
 endfacet
 facet normal -1.000000e+00  0.000000e+00  0.000000e+00
   outer loop
     vertex  1.705000e+02  6.800000e+01  0.000000e+00
     vertex  1.705000e+02  7.275000e+01 -3.000000e+00
     vertex  1.705000e+02  7.275000e+01 -5.000000e+00
   endloop
 endfacet
 facet normal -1.000000e+00  0.000000e+00  0.000000e+00
   outer loop
     vertex  1.705000e+02  6.800000e+01  0.000000e+00
     vertex  1.705000e+02  7.000000e+01  0.000000e+00
     vertex  1.705000e+02  7.275000e+01 -3.000000e+00
   endloop
 endfacet
 facet normal -1.000000e+00  0.000000e+00  0.000000e+00
   outer loop
     vertex  1.705000e+02  6.800000e+01  0.000000e+00
     vertex  1.705000e+02  7.275000e+01 -5.000000e+00
     vertex  1.705000e+02  6.800000e+01 -3.400000e+01
   endloop
 endfacet
 facet normal -1.000000e+00 -0.000000e+00  0.000000e+00
   outer loop
     vertex  1.705000e+02  1.150000e+02  0.000000e+00
     vertex  1.705000e+02  8.650000e+01 -3.000000e+00
     vertex  1.705000e+02  7.000000e+01  0.000000e+00
   endloop
 endfacet
 facet normal -1.000000e+00  0.000000e+00  0.000000e+00
   outer loop
     vertex  1.705000e+02  1.150000e+02  0.000000e+00
     vertex  1.705000e+02  9.850000e+01 -3.000000e+00
     vertex  1.705000e+02  8.650000e+01 -3.000000e+00
   endloop
 endfacet
 facet normal -0.000000e+00  0.000000e+00 -1.000000e+00
   outer loop
     vertex  1.705000e+02  7.000000e+01  0.000000e+00
     vertex  1.450000e+01  6.800000e+01  0.000000e+00
     vertex  1.450000e+01  7.000000e+01  0.000000e+00
   endloop
 endfacet
 facet normal  0.000000e+00 -0.000000e+00 -1.000000e+00
   outer loop
     vertex  1.705000e+02  7.000000e+01  0.000000e+00
     vertex  1.705000e+02  6.800000e+01  0.000000e+00
     vertex  1.450000e+01  6.800000e+01  0.000000e+00
   endloop
 endfacet
 facet normal  0.000000e+00  1.000000e+00  0.000000e+00
   outer loop
     vertex  1.150000e+01  7.000000e+01  4.000000e+00
     vertex  1.450000e+01  7.000000e+01  0.000000e+00
     vertex  1.150000e+01  7.000000e+01  0.000000e+00
   endloop
 endfacet
 facet normal  0.000000e+00  1.000000e+00  0.000000e+00
   outer loop
     vertex  1.705000e+02  7.000000e+01  0.000000e+00
     vertex  1.450000e+01  7.000000e+01  0.000000e+00
     vertex  1.150000e+01  7.000000e+01  4.000000e+00
   endloop
 endfacet
 facet normal  0.000000e+00  1.000000e+00  0.000000e+00
   outer loop
     vertex  1.735000e+02  7.000000e+01  4.000000e+00
     vertex  1.735000e+02  7.000000e+01  0.000000e+00
     vertex  1.705000e+02  7.000000e+01  0.000000e+00
   endloop
 endfacet
 facet normal  0.000000e+00  1.000000e+00  0.000000e+00
   outer loop
     vertex  1.735000e+02  7.000000e+01  4.000000e+00
     vertex  1.705000e+02  7.000000e+01  0.000000e+00
     vertex  1.150000e+01  7.000000e+01  4.000000e+00
   endloop
 endfacet
 facet normal  0.000000e+00  0.000000e+00  1.000000e+00
   outer loop
     vertex  1.765000e+02  6.800000e+01  0.000000e+00
     vertex  1.735000e+02  7.000000e+01  0.000000e+00
     vertex  1.735000e+02  6.800000e+01  0.000000e+00
   endloop
 endfacet
 facet normal  0.000000e+00  0.000000e+00  1.000000e+00
   outer loop
     vertex  1.765000e+02  1.170000e+02  0.000000e+00
     vertex  1.735000e+02  1.170000e+02  0.000000e+00
     vertex  1.735000e+02  1.150000e+02  0.000000e+00
   endloop
 endfacet
 facet normal  0.000000e+00  0.000000e+00  1.000000e+00
   outer loop
     vertex  1.765000e+02  1.170000e+02  0.000000e+00
     vertex  1.735000e+02  1.150000e+02  0.000000e+00
     vertex  1.735000e+02  7.000000e+01  0.000000e+00
   endloop
 endfacet
 facet normal  0.000000e+00  0.000000e+00  1.000000e+00
   outer loop
     vertex  1.765000e+02  1.170000e+02  0.000000e+00
     vertex  1.735000e+02  7.000000e+01  0.000000e+00
     vertex  1.765000e+02  6.800000e+01  0.000000e+00
   endloop
 endfacet
 facet normal  1.000000e+00  0.000000e+00  0.000000e+00
   outer loop
     vertex  1.765000e+02  6.800000e+01 -2.000000e+00
     vertex  1.765000e+02  6.800000e+01 -6.000000e+00
     vertex  1.765000e+02  1.170000e+02 -6.000000e+00
   endloop
 endfacet
 facet normal  1.000000e+00 -0.000000e+00  0.000000e+00
   outer loop
     vertex  1.765000e+02  6.800000e+01 -2.000000e+00
     vertex  1.765000e+02  1.170000e+02 -6.000000e+00
     vertex  1.765000e+02  1.170000e+02 -2.000000e+00
   endloop
 endfacet
 facet normal  1.000000e+00  0.000000e+00  0.000000e+00
   outer loop
     vertex  1.765000e+02  6.800000e+01  0.000000e+00
     vertex  1.765000e+02  6.800000e+01 -2.000000e+00
     vertex  1.765000e+02  1.170000e+02 -2.000000e+00
   endloop
 endfacet
 facet normal  1.000000e+00 -0.000000e+00  0.000000e+00
   outer loop
     vertex  1.765000e+02  6.800000e+01  0.000000e+00
     vertex  1.765000e+02  1.170000e+02 -2.000000e+00
     vertex  1.765000e+02  1.170000e+02  0.000000e+00
   endloop
 endfacet
 facet normal -1.000000e+00  0.000000e+00  0.000000e+00
   outer loop
     vertex  1.735000e+02  8.250000e+01 -6.000000e+00
     vertex  1.735000e+02  1.025000e+02 -2.000000e+00
     vertex  1.735000e+02  1.025000e+02 -6.000000e+00
   endloop
 endfacet
 facet normal -1.000000e+00  0.000000e+00  0.000000e+00
   outer loop
     vertex  1.735000e+02  8.250000e+01 -2.000000e+00
     vertex  1.735000e+02  1.025000e+02 -2.000000e+00
     vertex  1.735000e+02  8.250000e+01 -6.000000e+00
   endloop
 endfacet
 facet normal  0.000000e+00  0.000000e+00 -1.000000e+00
   outer loop
     vertex  1.710000e+02  1.025000e+02 -2.000000e+00
     vertex  1.735000e+02  8.250000e+01 -2.000000e+00
     vertex  1.710000e+02  8.250000e+01 -2.000000e+00
   endloop
 endfacet
 facet normal -0.000000e+00 -0.000000e+00 -1.000000e+00
   outer loop
     vertex  1.735000e+02  1.025000e+02 -2.000000e+00
     vertex  1.735000e+02  8.250000e+01 -2.000000e+00
     vertex  1.710000e+02  1.025000e+02 -2.000000e+00
   endloop
 endfacet
 facet normal  1.000000e+00  0.000000e+00  0.000000e+00
   outer loop
     vertex  1.710000e+02  8.250000e+01 -2.000000e+00
     vertex  1.710000e+02  8.250000e+01 -1.800000e+01
     vertex  1.710000e+02  1.025000e+02 -1.800000e+01
   endloop
 endfacet
 facet normal  1.000000e+00 -0.000000e+00  0.000000e+00
   outer loop
     vertex  1.710000e+02  8.250000e+01 -2.000000e+00
     vertex  1.710000e+02  1.025000e+02 -1.800000e+01
     vertex  1.710000e+02  1.025000e+02 -2.000000e+00
   endloop
 endfacet
 facet normal  0.000000e+00 -1.000000e+00  0.000000e+00
   outer loop
     vertex  1.150000e+01  1.150000e+02  4.000000e+00
     vertex  1.150000e+01  1.150000e+02  0.000000e+00
     vertex  1.450000e+01  1.150000e+02  0.000000e+00
   endloop
 endfacet
 facet normal  0.000000e+00 -1.000000e+00  0.000000e+00
   outer loop
     vertex  1.705000e+02  1.150000e+02  0.000000e+00
     vertex  1.150000e+01  1.150000e+02  4.000000e+00
     vertex  1.450000e+01  1.150000e+02  0.000000e+00
   endloop
 endfacet
 facet normal  0.000000e+00 -1.000000e+00 -0.000000e+00
   outer loop
     vertex  1.735000e+02  1.150000e+02  4.000000e+00
     vertex  1.705000e+02  1.150000e+02  0.000000e+00
     vertex  1.735000e+02  1.150000e+02  0.000000e+00
   endloop
 endfacet
 facet normal -0.000000e+00 -1.000000e+00  0.000000e+00
   outer loop
     vertex  1.735000e+02  1.150000e+02  4.000000e+00
     vertex  1.150000e+01  1.150000e+02  4.000000e+00
     vertex  1.705000e+02  1.150000e+02  0.000000e+00
   endloop
 endfacet
 facet normal  0.000000e+00  0.000000e+00  1.000000e+00
   outer loop
     vertex  1.150000e+01  1.150000e+02  0.000000e+00
     vertex  1.150000e+01  7.000000e+01  0.000000e+00
     vertex  1.450000e+01  7.000000e+01  0.000000e+00
   endloop
 endfacet
 facet normal  0.000000e+00  0.000000e+00  1.000000e+00
   outer loop
     vertex  1.450000e+01  1.150000e+02  0.000000e+00
     vertex  1.150000e+01  1.150000e+02  0.000000e+00
     vertex  1.450000e+01  7.000000e+01  0.000000e+00
   endloop
 endfacet
 facet normal -0.000000e+00  0.000000e+00 -1.000000e+00
   outer loop
     vertex  1.705000e+02  1.170000e+02  0.000000e+00
     vertex  1.450000e+01  1.150000e+02  0.000000e+00
     vertex  1.450000e+01  1.170000e+02  0.000000e+00
   endloop
 endfacet
 facet normal  0.000000e+00 -0.000000e+00 -1.000000e+00
   outer loop
     vertex  1.705000e+02  1.170000e+02  0.000000e+00
     vertex  1.705000e+02  1.150000e+02  0.000000e+00
     vertex  1.450000e+01  1.150000e+02  0.000000e+00
   endloop
 endfacet
 facet normal -0.000000e+00  0.000000e+00 -1.000000e+00
   outer loop
     vertex  1.570000e+01  1.082500e+02 -1.800000e+01
     vertex  1.450000e+01  9.325000e+01 -1.800000e+01
     vertex  1.450000e+01  1.082500e+02 -1.800000e+01
   endloop
 endfacet
 facet normal  0.000000e+00 -0.000000e+00 -1.000000e+00
   outer loop
     vertex  1.570000e+01  1.082500e+02 -1.800000e+01
     vertex  1.570000e+01  9.325000e+01 -1.800000e+01
     vertex  1.450000e+01  9.325000e+01 -1.800000e+01
   endloop
 endfacet
 facet normal  0.000000e+00  1.000000e+00  0.000000e+00
   outer loop
     vertex  1.570000e+01  1.082500e+02 -1.600000e+01
     vertex  1.570000e+01  1.082500e+02 -1.800000e+01
     vertex  1.450000e+01  1.082500e+02 -1.800000e+01
   endloop
 endfacet
 facet normal  0.000000e+00  1.000000e+00  0.000000e+00
   outer loop
     vertex  1.570000e+01  1.082500e+02 -1.600000e+01
     vertex  1.450000e+01  1.082500e+02 -1.800000e+01
     vertex  1.450000e+01  1.082500e+02 -1.600000e+01
   endloop
 endfacet
 facet normal  0.000000e+00  0.000000e+00  1.000000e+00
   outer loop
     vertex  1.570000e+01  1.082500e+02 -1.600000e+01
     vertex  1.450000e+01  1.082500e+02 -1.600000e+01
     vertex  1.450000e+01  9.325000e+01 -1.600000e+01
   endloop
 endfacet
 facet normal  0.000000e+00  0.000000e+00  1.000000e+00
   outer loop
     vertex  1.570000e+01  1.082500e+02 -1.600000e+01
     vertex  1.450000e+01  9.325000e+01 -1.600000e+01
     vertex  1.570000e+01  9.325000e+01 -1.600000e+01
   endloop
 endfacet
 facet normal  0.000000e+00 -1.000000e+00 -0.000000e+00
   outer loop
     vertex  1.570000e+01  9.325000e+01 -1.600000e+01
     vertex  1.450000e+01  9.325000e+01 -1.800000e+01
     vertex  1.570000e+01  9.325000e+01 -1.800000e+01
   endloop
 endfacet
 facet normal -0.000000e+00 -1.000000e+00  0.000000e+00
   outer loop
     vertex  1.570000e+01  9.325000e+01 -1.600000e+01
     vertex  1.450000e+01  9.325000e+01 -1.600000e+01
     vertex  1.450000e+01  9.325000e+01 -1.800000e+01
   endloop
 endfacet
 facet normal -0.000000e+00  0.000000e+00 -1.000000e+00
   outer loop
     vertex  1.570000e+01  1.122500e+02 -5.000000e+00
     vertex  1.450000e+01  1.002500e+02 -5.000000e+00
     vertex  1.450000e+01  1.122500e+02 -5.000000e+00
   endloop
 endfacet
 facet normal  0.000000e+00 -0.000000e+00 -1.000000e+00
   outer loop
     vertex  1.570000e+01  1.122500e+02 -5.000000e+00
     vertex  1.570000e+01  1.002500e+02 -5.000000e+00
     vertex  1.450000e+01  1.002500e+02 -5.000000e+00
   endloop
 endfacet
 facet normal  0.000000e+00 -1.000000e+00 -0.000000e+00
   outer loop
     vertex  1.570000e+01  1.002500e+02 -3.000000e+00
     vertex  1.450000e+01  1.002500e+02 -5.000000e+00
     vertex  1.570000e+01  1.002500e+02 -5.000000e+00
   endloop
 endfacet
 facet normal -0.000000e+00 -1.000000e+00  0.000000e+00
   outer loop
     vertex  1.570000e+01  1.002500e+02 -3.000000e+00
     vertex  1.450000e+01  1.002500e+02 -3.000000e+00
     vertex  1.450000e+01  1.002500e+02 -5.000000e+00
   endloop
 endfacet
 facet normal  0.000000e+00  1.000000e+00  0.000000e+00
   outer loop
     vertex  1.570000e+01  1.122500e+02 -3.000000e+00
     vertex  1.570000e+01  1.122500e+02 -5.000000e+00
     vertex  1.450000e+01  1.122500e+02 -5.000000e+00
   endloop
 endfacet
 facet normal  0.000000e+00  1.000000e+00  0.000000e+00
   outer loop
     vertex  1.570000e+01  1.122500e+02 -3.000000e+00
     vertex  1.450000e+01  1.122500e+02 -5.000000e+00
     vertex  1.450000e+01  1.122500e+02 -3.000000e+00
   endloop
 endfacet
 facet normal  0.000000e+00  0.000000e+00  1.000000e+00
   outer loop
     vertex  1.570000e+01  1.122500e+02 -3.000000e+00
     vertex  1.450000e+01  1.122500e+02 -3.000000e+00
     vertex  1.450000e+01  1.002500e+02 -3.000000e+00
   endloop
 endfacet
 facet normal  0.000000e+00  0.000000e+00  1.000000e+00
   outer loop
     vertex  1.570000e+01  1.122500e+02 -3.000000e+00
     vertex  1.450000e+01  1.002500e+02 -3.000000e+00
     vertex  1.570000e+01  1.002500e+02 -3.000000e+00
   endloop
 endfacet
 facet normal -0.000000e+00  0.000000e+00 -1.000000e+00
   outer loop
     vertex  1.570000e+01  9.175000e+01 -1.800000e+01
     vertex  1.450000e+01  7.675000e+01 -1.800000e+01
     vertex  1.450000e+01  9.175000e+01 -1.800000e+01
   endloop
 endfacet
 facet normal  0.000000e+00 -0.000000e+00 -1.000000e+00
   outer loop
     vertex  1.570000e+01  9.175000e+01 -1.800000e+01
     vertex  1.570000e+01  7.675000e+01 -1.800000e+01
     vertex  1.450000e+01  7.675000e+01 -1.800000e+01
   endloop
 endfacet
 facet normal  0.000000e+00 -1.000000e+00 -0.000000e+00
   outer loop
     vertex  1.570000e+01  7.675000e+01 -1.600000e+01
     vertex  1.450000e+01  7.675000e+01 -1.800000e+01
     vertex  1.570000e+01  7.675000e+01 -1.800000e+01
   endloop
 endfacet
 facet normal -0.000000e+00 -1.000000e+00  0.000000e+00
   outer loop
     vertex  1.570000e+01  7.675000e+01 -1.600000e+01
     vertex  1.450000e+01  7.675000e+01 -1.600000e+01
     vertex  1.450000e+01  7.675000e+01 -1.800000e+01
   endloop
 endfacet
 facet normal  0.000000e+00  1.000000e+00  0.000000e+00
   outer loop
     vertex  1.570000e+01  9.175000e+01 -1.600000e+01
     vertex  1.570000e+01  9.175000e+01 -1.800000e+01
     vertex  1.450000e+01  9.175000e+01 -1.800000e+01
   endloop
 endfacet
 facet normal  0.000000e+00  1.000000e+00  0.000000e+00
   outer loop
     vertex  1.570000e+01  9.175000e+01 -1.600000e+01
     vertex  1.450000e+01  9.175000e+01 -1.800000e+01
     vertex  1.450000e+01  9.175000e+01 -1.600000e+01
   endloop
 endfacet
 facet normal  0.000000e+00  0.000000e+00  1.000000e+00
   outer loop
     vertex  1.570000e+01  9.175000e+01 -1.600000e+01
     vertex  1.450000e+01  9.175000e+01 -1.600000e+01
     vertex  1.450000e+01  7.675000e+01 -1.600000e+01
   endloop
 endfacet
 facet normal  0.000000e+00  0.000000e+00  1.000000e+00
   outer loop
     vertex  1.570000e+01  9.175000e+01 -1.600000e+01
     vertex  1.450000e+01  7.675000e+01 -1.600000e+01
     vertex  1.570000e+01  7.675000e+01 -1.600000e+01
   endloop
 endfacet
 facet normal -0.000000e+00  0.000000e+00 -1.000000e+00
   outer loop
     vertex  1.570000e+01  9.850000e+01 -5.000000e+00
     vertex  1.450000e+01  8.650000e+01 -5.000000e+00
     vertex  1.450000e+01  9.850000e+01 -5.000000e+00
   endloop
 endfacet
 facet normal  0.000000e+00 -0.000000e+00 -1.000000e+00
   outer loop
     vertex  1.570000e+01  9.850000e+01 -5.000000e+00
     vertex  1.570000e+01  8.650000e+01 -5.000000e+00
     vertex  1.450000e+01  8.650000e+01 -5.000000e+00
   endloop
 endfacet
 facet normal  0.000000e+00 -1.000000e+00 -0.000000e+00
   outer loop
     vertex  1.570000e+01  8.650000e+01 -3.000000e+00
     vertex  1.450000e+01  8.650000e+01 -5.000000e+00
     vertex  1.570000e+01  8.650000e+01 -5.000000e+00
   endloop
 endfacet
 facet normal -0.000000e+00 -1.000000e+00  0.000000e+00
   outer loop
     vertex  1.570000e+01  8.650000e+01 -3.000000e+00
     vertex  1.450000e+01  8.650000e+01 -3.000000e+00
     vertex  1.450000e+01  8.650000e+01 -5.000000e+00
   endloop
 endfacet
 facet normal  0.000000e+00  1.000000e+00  0.000000e+00
   outer loop
     vertex  1.570000e+01  9.850000e+01 -3.000000e+00
     vertex  1.570000e+01  9.850000e+01 -5.000000e+00
     vertex  1.450000e+01  9.850000e+01 -5.000000e+00
   endloop
 endfacet
 facet normal  0.000000e+00  1.000000e+00  0.000000e+00
   outer loop
     vertex  1.570000e+01  9.850000e+01 -3.000000e+00
     vertex  1.450000e+01  9.850000e+01 -5.000000e+00
     vertex  1.450000e+01  9.850000e+01 -3.000000e+00
   endloop
 endfacet
 facet normal  0.000000e+00  0.000000e+00  1.000000e+00
   outer loop
     vertex  1.570000e+01  9.850000e+01 -3.000000e+00
     vertex  1.450000e+01  9.850000e+01 -3.000000e+00
     vertex  1.450000e+01  8.650000e+01 -3.000000e+00
   endloop
 endfacet
 facet normal  0.000000e+00  0.000000e+00  1.000000e+00
   outer loop
     vertex  1.570000e+01  9.850000e+01 -3.000000e+00
     vertex  1.450000e+01  8.650000e+01 -3.000000e+00
     vertex  1.570000e+01  8.650000e+01 -3.000000e+00
   endloop
 endfacet
 facet normal -0.000000e+00  0.000000e+00 -1.000000e+00
   outer loop
     vertex  1.570000e+01  8.475000e+01 -5.000000e+00
     vertex  1.450000e+01  7.275000e+01 -5.000000e+00
     vertex  1.450000e+01  8.475000e+01 -5.000000e+00
   endloop
 endfacet
 facet normal  0.000000e+00 -0.000000e+00 -1.000000e+00
   outer loop
     vertex  1.570000e+01  8.475000e+01 -5.000000e+00
     vertex  1.570000e+01  7.275000e+01 -5.000000e+00
     vertex  1.450000e+01  7.275000e+01 -5.000000e+00
   endloop
 endfacet
 facet normal  0.000000e+00 -1.000000e+00 -0.000000e+00
   outer loop
     vertex  1.570000e+01  7.275000e+01 -3.000000e+00
     vertex  1.450000e+01  7.275000e+01 -5.000000e+00
     vertex  1.570000e+01  7.275000e+01 -5.000000e+00
   endloop
 endfacet
 facet normal -0.000000e+00 -1.000000e+00  0.000000e+00
   outer loop
     vertex  1.570000e+01  7.275000e+01 -3.000000e+00
     vertex  1.450000e+01  7.275000e+01 -3.000000e+00
     vertex  1.450000e+01  7.275000e+01 -5.000000e+00
   endloop
 endfacet
 facet normal  0.000000e+00  1.000000e+00  0.000000e+00
   outer loop
     vertex  1.570000e+01  8.475000e+01 -3.000000e+00
     vertex  1.570000e+01  8.475000e+01 -5.000000e+00
     vertex  1.450000e+01  8.475000e+01 -5.000000e+00
   endloop
 endfacet
 facet normal  0.000000e+00  1.000000e+00  0.000000e+00
   outer loop
     vertex  1.570000e+01  8.475000e+01 -3.000000e+00
     vertex  1.450000e+01  8.475000e+01 -5.000000e+00
     vertex  1.450000e+01  8.475000e+01 -3.000000e+00
   endloop
 endfacet
 facet normal  0.000000e+00  0.000000e+00  1.000000e+00
   outer loop
     vertex  1.570000e+01  8.475000e+01 -3.000000e+00
     vertex  1.450000e+01  8.475000e+01 -3.000000e+00
     vertex  1.450000e+01  7.275000e+01 -3.000000e+00
   endloop
 endfacet
 facet normal  0.000000e+00  0.000000e+00  1.000000e+00
   outer loop
     vertex  1.570000e+01  8.475000e+01 -3.000000e+00
     vertex  1.450000e+01  7.275000e+01 -3.000000e+00
     vertex  1.570000e+01  7.275000e+01 -3.000000e+00
   endloop
 endfacet
 facet normal  0.000000e+00  0.000000e+00  1.000000e+00
   outer loop
     vertex  1.705000e+02  1.150000e+02  0.000000e+00
     vertex  1.705000e+02  7.000000e+01  0.000000e+00
     vertex  1.735000e+02  7.000000e+01  0.000000e+00
   endloop
 endfacet
 facet normal  0.000000e+00  0.000000e+00  1.000000e+00
   outer loop
     vertex  1.735000e+02  1.150000e+02  0.000000e+00
     vertex  1.705000e+02  1.150000e+02  0.000000e+00
     vertex  1.735000e+02  7.000000e+01  0.000000e+00
   endloop
 endfacet
 facet normal -0.000000e+00  0.000000e+00 -1.000000e+00
   outer loop
     vertex  1.705000e+02  1.082500e+02 -1.800000e+01
     vertex  1.693000e+02  9.325000e+01 -1.800000e+01
     vertex  1.693000e+02  1.082500e+02 -1.800000e+01
   endloop
 endfacet
 facet normal  0.000000e+00 -0.000000e+00 -1.000000e+00
   outer loop
     vertex  1.705000e+02  1.082500e+02 -1.800000e+01
     vertex  1.705000e+02  9.325000e+01 -1.800000e+01
     vertex  1.693000e+02  9.325000e+01 -1.800000e+01
   endloop
 endfacet
 facet normal  0.000000e+00  1.000000e+00  0.000000e+00
   outer loop
     vertex  1.705000e+02  1.082500e+02 -1.600000e+01
     vertex  1.705000e+02  1.082500e+02 -1.800000e+01
     vertex  1.693000e+02  1.082500e+02 -1.800000e+01
   endloop
 endfacet
 facet normal  0.000000e+00  1.000000e+00  0.000000e+00
   outer loop
     vertex  1.705000e+02  1.082500e+02 -1.600000e+01
     vertex  1.693000e+02  1.082500e+02 -1.800000e+01
     vertex  1.693000e+02  1.082500e+02 -1.600000e+01
   endloop
 endfacet
 facet normal  0.000000e+00  0.000000e+00  1.000000e+00
   outer loop
     vertex  1.705000e+02  1.082500e+02 -1.600000e+01
     vertex  1.693000e+02  1.082500e+02 -1.600000e+01
     vertex  1.693000e+02  9.325000e+01 -1.600000e+01
   endloop
 endfacet
 facet normal  0.000000e+00  0.000000e+00  1.000000e+00
   outer loop
     vertex  1.705000e+02  1.082500e+02 -1.600000e+01
     vertex  1.693000e+02  9.325000e+01 -1.600000e+01
     vertex  1.705000e+02  9.325000e+01 -1.600000e+01
   endloop
 endfacet
 facet normal  0.000000e+00 -1.000000e+00 -0.000000e+00
   outer loop
     vertex  1.705000e+02  9.325000e+01 -1.600000e+01
     vertex  1.693000e+02  9.325000e+01 -1.800000e+01
     vertex  1.705000e+02  9.325000e+01 -1.800000e+01
   endloop
 endfacet
 facet normal -0.000000e+00 -1.000000e+00  0.000000e+00
   outer loop
     vertex  1.705000e+02  9.325000e+01 -1.600000e+01
     vertex  1.693000e+02  9.325000e+01 -1.600000e+01
     vertex  1.693000e+02  9.325000e+01 -1.800000e+01
   endloop
 endfacet
 facet normal -0.000000e+00  0.000000e+00 -1.000000e+00
   outer loop
     vertex  1.705000e+02  1.122500e+02 -5.000000e+00
     vertex  1.693000e+02  1.002500e+02 -5.000000e+00
     vertex  1.693000e+02  1.122500e+02 -5.000000e+00
   endloop
 endfacet
 facet normal  0.000000e+00 -0.000000e+00 -1.000000e+00
   outer loop
     vertex  1.705000e+02  1.122500e+02 -5.000000e+00
     vertex  1.705000e+02  1.002500e+02 -5.000000e+00
     vertex  1.693000e+02  1.002500e+02 -5.000000e+00
   endloop
 endfacet
 facet normal  0.000000e+00 -1.000000e+00 -0.000000e+00
   outer loop
     vertex  1.705000e+02  1.002500e+02 -3.000000e+00
     vertex  1.693000e+02  1.002500e+02 -5.000000e+00
     vertex  1.705000e+02  1.002500e+02 -5.000000e+00
   endloop
 endfacet
 facet normal -0.000000e+00 -1.000000e+00  0.000000e+00
   outer loop
     vertex  1.705000e+02  1.002500e+02 -3.000000e+00
     vertex  1.693000e+02  1.002500e+02 -3.000000e+00
     vertex  1.693000e+02  1.002500e+02 -5.000000e+00
   endloop
 endfacet
 facet normal  0.000000e+00  1.000000e+00  0.000000e+00
   outer loop
     vertex  1.705000e+02  1.122500e+02 -3.000000e+00
     vertex  1.705000e+02  1.122500e+02 -5.000000e+00
     vertex  1.693000e+02  1.122500e+02 -5.000000e+00
   endloop
 endfacet
 facet normal  0.000000e+00  1.000000e+00  0.000000e+00
   outer loop
     vertex  1.705000e+02  1.122500e+02 -3.000000e+00
     vertex  1.693000e+02  1.122500e+02 -5.000000e+00
     vertex  1.693000e+02  1.122500e+02 -3.000000e+00
   endloop
 endfacet
 facet normal  0.000000e+00  0.000000e+00  1.000000e+00
   outer loop
     vertex  1.705000e+02  1.122500e+02 -3.000000e+00
     vertex  1.693000e+02  1.122500e+02 -3.000000e+00
     vertex  1.693000e+02  1.002500e+02 -3.000000e+00
   endloop
 endfacet
 facet normal  0.000000e+00  0.000000e+00  1.000000e+00
   outer loop
     vertex  1.705000e+02  1.122500e+02 -3.000000e+00
     vertex  1.693000e+02  1.002500e+02 -3.000000e+00
     vertex  1.705000e+02  1.002500e+02 -3.000000e+00
   endloop
 endfacet
 facet normal -0.000000e+00  0.000000e+00 -1.000000e+00
   outer loop
     vertex  1.705000e+02  9.175000e+01 -1.800000e+01
     vertex  1.693000e+02  7.675000e+01 -1.800000e+01
     vertex  1.693000e+02  9.175000e+01 -1.800000e+01
   endloop
 endfacet
 facet normal  0.000000e+00 -0.000000e+00 -1.000000e+00
   outer loop
     vertex  1.705000e+02  9.175000e+01 -1.800000e+01
     vertex  1.705000e+02  7.675000e+01 -1.800000e+01
     vertex  1.693000e+02  7.675000e+01 -1.800000e+01
   endloop
 endfacet
 facet normal  0.000000e+00 -1.000000e+00 -0.000000e+00
   outer loop
     vertex  1.705000e+02  7.675000e+01 -1.600000e+01
     vertex  1.693000e+02  7.675000e+01 -1.800000e+01
     vertex  1.705000e+02  7.675000e+01 -1.800000e+01
   endloop
 endfacet
 facet normal -0.000000e+00 -1.000000e+00  0.000000e+00
   outer loop
     vertex  1.705000e+02  7.675000e+01 -1.600000e+01
     vertex  1.693000e+02  7.675000e+01 -1.600000e+01
     vertex  1.693000e+02  7.675000e+01 -1.800000e+01
   endloop
 endfacet
 facet normal  0.000000e+00  1.000000e+00  0.000000e+00
   outer loop
     vertex  1.705000e+02  9.175000e+01 -1.600000e+01
     vertex  1.705000e+02  9.175000e+01 -1.800000e+01
     vertex  1.693000e+02  9.175000e+01 -1.800000e+01
   endloop
 endfacet
 facet normal  0.000000e+00  1.000000e+00  0.000000e+00
   outer loop
     vertex  1.705000e+02  9.175000e+01 -1.600000e+01
     vertex  1.693000e+02  9.175000e+01 -1.800000e+01
     vertex  1.693000e+02  9.175000e+01 -1.600000e+01
   endloop
 endfacet
 facet normal  0.000000e+00  0.000000e+00  1.000000e+00
   outer loop
     vertex  1.705000e+02  9.175000e+01 -1.600000e+01
     vertex  1.693000e+02  9.175000e+01 -1.600000e+01
     vertex  1.693000e+02  7.675000e+01 -1.600000e+01
   endloop
 endfacet
 facet normal  0.000000e+00  0.000000e+00  1.000000e+00
   outer loop
     vertex  1.705000e+02  9.175000e+01 -1.600000e+01
     vertex  1.693000e+02  7.675000e+01 -1.600000e+01
     vertex  1.705000e+02  7.675000e+01 -1.600000e+01
   endloop
 endfacet
 facet normal -0.000000e+00  0.000000e+00 -1.000000e+00
   outer loop
     vertex  1.705000e+02  9.850000e+01 -5.000000e+00
     vertex  1.693000e+02  8.650000e+01 -5.000000e+00
     vertex  1.693000e+02  9.850000e+01 -5.000000e+00
   endloop
 endfacet
 facet normal  0.000000e+00 -0.000000e+00 -1.000000e+00
   outer loop
     vertex  1.705000e+02  9.850000e+01 -5.000000e+00
     vertex  1.705000e+02  8.650000e+01 -5.000000e+00
     vertex  1.693000e+02  8.650000e+01 -5.000000e+00
   endloop
 endfacet
 facet normal  0.000000e+00 -1.000000e+00 -0.000000e+00
   outer loop
     vertex  1.705000e+02  8.650000e+01 -3.000000e+00
     vertex  1.693000e+02  8.650000e+01 -5.000000e+00
     vertex  1.705000e+02  8.650000e+01 -5.000000e+00
   endloop
 endfacet
 facet normal -0.000000e+00 -1.000000e+00  0.000000e+00
   outer loop
     vertex  1.705000e+02  8.650000e+01 -3.000000e+00
     vertex  1.693000e+02  8.650000e+01 -3.000000e+00
     vertex  1.693000e+02  8.650000e+01 -5.000000e+00
   endloop
 endfacet
 facet normal  0.000000e+00  1.000000e+00  0.000000e+00
   outer loop
     vertex  1.705000e+02  9.850000e+01 -3.000000e+00
     vertex  1.705000e+02  9.850000e+01 -5.000000e+00
     vertex  1.693000e+02  9.850000e+01 -5.000000e+00
   endloop
 endfacet
 facet normal  0.000000e+00  1.000000e+00  0.000000e+00
   outer loop
     vertex  1.705000e+02  9.850000e+01 -3.000000e+00
     vertex  1.693000e+02  9.850000e+01 -5.000000e+00
     vertex  1.693000e+02  9.850000e+01 -3.000000e+00
   endloop
 endfacet
 facet normal  0.000000e+00  0.000000e+00  1.000000e+00
   outer loop
     vertex  1.705000e+02  9.850000e+01 -3.000000e+00
     vertex  1.693000e+02  9.850000e+01 -3.000000e+00
     vertex  1.693000e+02  8.650000e+01 -3.000000e+00
   endloop
 endfacet
 facet normal  0.000000e+00  0.000000e+00  1.000000e+00
   outer loop
     vertex  1.705000e+02  9.850000e+01 -3.000000e+00
     vertex  1.693000e+02  8.650000e+01 -3.000000e+00
     vertex  1.705000e+02  8.650000e+01 -3.000000e+00
   endloop
 endfacet
 facet normal -0.000000e+00  0.000000e+00 -1.000000e+00
   outer loop
     vertex  1.705000e+02  8.475000e+01 -5.000000e+00
     vertex  1.693000e+02  7.275000e+01 -5.000000e+00
     vertex  1.693000e+02  8.475000e+01 -5.000000e+00
   endloop
 endfacet
 facet normal  0.000000e+00 -0.000000e+00 -1.000000e+00
   outer loop
     vertex  1.705000e+02  8.475000e+01 -5.000000e+00
     vertex  1.705000e+02  7.275000e+01 -5.000000e+00
     vertex  1.693000e+02  7.275000e+01 -5.000000e+00
   endloop
 endfacet
 facet normal  0.000000e+00 -1.000000e+00 -0.000000e+00
   outer loop
     vertex  1.705000e+02  7.275000e+01 -3.000000e+00
     vertex  1.693000e+02  7.275000e+01 -5.000000e+00
     vertex  1.705000e+02  7.275000e+01 -5.000000e+00
   endloop
 endfacet
 facet normal -0.000000e+00 -1.000000e+00  0.000000e+00
   outer loop
     vertex  1.705000e+02  7.275000e+01 -3.000000e+00
     vertex  1.693000e+02  7.275000e+01 -3.000000e+00
     vertex  1.693000e+02  7.275000e+01 -5.000000e+00
   endloop
 endfacet
 facet normal  0.000000e+00  1.000000e+00  0.000000e+00
   outer loop
     vertex  1.705000e+02  8.475000e+01 -3.000000e+00
     vertex  1.705000e+02  8.475000e+01 -5.000000e+00
     vertex  1.693000e+02  8.475000e+01 -5.000000e+00
   endloop
 endfacet
 facet normal  0.000000e+00  1.000000e+00  0.000000e+00
   outer loop
     vertex  1.705000e+02  8.475000e+01 -3.000000e+00
     vertex  1.693000e+02  8.475000e+01 -5.000000e+00
     vertex  1.693000e+02  8.475000e+01 -3.000000e+00
   endloop
 endfacet
 facet normal  0.000000e+00  0.000000e+00  1.000000e+00
   outer loop
     vertex  1.705000e+02  8.475000e+01 -3.000000e+00
     vertex  1.693000e+02  8.475000e+01 -3.000000e+00
     vertex  1.693000e+02  7.275000e+01 -3.000000e+00
   endloop
 endfacet
 facet normal  0.000000e+00  0.000000e+00  1.000000e+00
   outer loop
     vertex  1.705000e+02  8.475000e+01 -3.000000e+00
     vertex  1.693000e+02  7.275000e+01 -3.000000e+00
     vertex  1.705000e+02  7.275000e+01 -3.000000e+00
   endloop
 endfacet
 facet normal  1.000000e+00  0.000000e+00  0.000000e+00
   outer loop
     vertex  1.570000e+01  9.325000e+01 -1.600000e+01
     vertex  1.570000e+01  9.325000e+01 -1.800000e+01
     vertex  1.570000e+01  1.082500e+02 -1.800000e+01
   endloop
 endfacet
 facet normal  1.000000e+00 -0.000000e+00  0.000000e+00
   outer loop
     vertex  1.570000e+01  9.325000e+01 -1.600000e+01
     vertex  1.570000e+01  1.082500e+02 -1.800000e+01
     vertex  1.570000e+01  1.082500e+02 -1.600000e+01
   endloop
 endfacet
 facet normal  1.000000e+00  0.000000e+00  0.000000e+00
   outer loop
     vertex  1.570000e+01  1.002500e+02 -3.000000e+00
     vertex  1.570000e+01  1.002500e+02 -5.000000e+00
     vertex  1.570000e+01  1.122500e+02 -5.000000e+00
   endloop
 endfacet
 facet normal  1.000000e+00 -0.000000e+00  0.000000e+00
   outer loop
     vertex  1.570000e+01  1.002500e+02 -3.000000e+00
     vertex  1.570000e+01  1.122500e+02 -5.000000e+00
     vertex  1.570000e+01  1.122500e+02 -3.000000e+00
   endloop
 endfacet
 facet normal  1.000000e+00  0.000000e+00  0.000000e+00
   outer loop
     vertex  1.570000e+01  7.675000e+01 -1.600000e+01
     vertex  1.570000e+01  7.675000e+01 -1.800000e+01
     vertex  1.570000e+01  9.175000e+01 -1.800000e+01
   endloop
 endfacet
 facet normal  1.000000e+00 -0.000000e+00  0.000000e+00
   outer loop
     vertex  1.570000e+01  7.675000e+01 -1.600000e+01
     vertex  1.570000e+01  9.175000e+01 -1.800000e+01
     vertex  1.570000e+01  9.175000e+01 -1.600000e+01
   endloop
 endfacet
 facet normal  1.000000e+00  0.000000e+00  0.000000e+00
   outer loop
     vertex  1.570000e+01  8.650000e+01 -3.000000e+00
     vertex  1.570000e+01  8.650000e+01 -5.000000e+00
     vertex  1.570000e+01  9.850000e+01 -5.000000e+00
   endloop
 endfacet
 facet normal  1.000000e+00 -0.000000e+00  0.000000e+00
   outer loop
     vertex  1.570000e+01  8.650000e+01 -3.000000e+00
     vertex  1.570000e+01  9.850000e+01 -5.000000e+00
     vertex  1.570000e+01  9.850000e+01 -3.000000e+00
   endloop
 endfacet
 facet normal  1.000000e+00  0.000000e+00  0.000000e+00
   outer loop
     vertex  1.570000e+01  7.275000e+01 -3.000000e+00
     vertex  1.570000e+01  7.275000e+01 -5.000000e+00
     vertex  1.570000e+01  8.475000e+01 -5.000000e+00
   endloop
 endfacet
 facet normal  1.000000e+00 -0.000000e+00  0.000000e+00
   outer loop
     vertex  1.570000e+01  7.275000e+01 -3.000000e+00
     vertex  1.570000e+01  8.475000e+01 -5.000000e+00
     vertex  1.570000e+01  8.475000e+01 -3.000000e+00
   endloop
 endfacet
 facet normal -1.000000e+00  0.000000e+00  0.000000e+00
   outer loop
     vertex  1.693000e+02  9.325000e+01 -1.600000e+01
     vertex  1.693000e+02  1.082500e+02 -1.800000e+01
     vertex  1.693000e+02  9.325000e+01 -1.800000e+01
   endloop
 endfacet
 facet normal -1.000000e+00  0.000000e+00  0.000000e+00
   outer loop
     vertex  1.693000e+02  9.325000e+01 -1.600000e+01
     vertex  1.693000e+02  1.082500e+02 -1.600000e+01
     vertex  1.693000e+02  1.082500e+02 -1.800000e+01
   endloop
 endfacet
 facet normal -1.000000e+00  0.000000e+00  0.000000e+00
   outer loop
     vertex  1.693000e+02  1.002500e+02 -3.000000e+00
     vertex  1.693000e+02  1.122500e+02 -5.000000e+00
     vertex  1.693000e+02  1.002500e+02 -5.000000e+00
   endloop
 endfacet
 facet normal -1.000000e+00  0.000000e+00  0.000000e+00
   outer loop
     vertex  1.693000e+02  1.002500e+02 -3.000000e+00
     vertex  1.693000e+02  1.122500e+02 -3.000000e+00
     vertex  1.693000e+02  1.122500e+02 -5.000000e+00
   endloop
 endfacet
 facet normal -1.000000e+00  0.000000e+00  0.000000e+00
   outer loop
     vertex  1.693000e+02  7.675000e+01 -1.600000e+01
     vertex  1.693000e+02  9.175000e+01 -1.800000e+01
     vertex  1.693000e+02  7.675000e+01 -1.800000e+01
   endloop
 endfacet
 facet normal -1.000000e+00  0.000000e+00  0.000000e+00
   outer loop
     vertex  1.693000e+02  7.675000e+01 -1.600000e+01
     vertex  1.693000e+02  9.175000e+01 -1.600000e+01
     vertex  1.693000e+02  9.175000e+01 -1.800000e+01
   endloop
 endfacet
 facet normal -1.000000e+00  0.000000e+00  0.000000e+00
   outer loop
     vertex  1.693000e+02  8.650000e+01 -3.000000e+00
     vertex  1.693000e+02  9.850000e+01 -5.000000e+00
     vertex  1.693000e+02  8.650000e+01 -5.000000e+00
   endloop
 endfacet
 facet normal -1.000000e+00  0.000000e+00  0.000000e+00
   outer loop
     vertex  1.693000e+02  8.650000e+01 -3.000000e+00
     vertex  1.693000e+02  9.850000e+01 -3.000000e+00
     vertex  1.693000e+02  9.850000e+01 -5.000000e+00
   endloop
 endfacet
 facet normal -1.000000e+00  0.000000e+00  0.000000e+00
   outer loop
     vertex  1.693000e+02  7.275000e+01 -3.000000e+00
     vertex  1.693000e+02  8.475000e+01 -5.000000e+00
     vertex  1.693000e+02  7.275000e+01 -5.000000e+00
   endloop
 endfacet
 facet normal -1.000000e+00  0.000000e+00  0.000000e+00
   outer loop
     vertex  1.693000e+02  7.275000e+01 -3.000000e+00
     vertex  1.693000e+02  8.475000e+01 -3.000000e+00
     vertex  1.693000e+02  8.475000e+01 -5.000000e+00
   endloop
 endfacet
endsolid
